<svg width="26" height="26" viewBox="0 0 26 26" fill="none" xmlns="http://www.w3.org/2000/svg">
<path d="M22.8004 0.399902H3.20039C1.66039 0.399902 0.400391 1.6599 0.400391 3.1999V22.7999C0.400391 24.3413 1.66039 25.5999 3.20039 25.5999H13.0004V15.7999H10.2004V12.3349H13.0004V9.4649C13.0004 6.4353 14.6972 4.3073 18.2728 4.3073L20.797 4.3101V7.9571H19.1212C17.7296 7.9571 17.2004 9.0015 17.2004 9.9703V12.3363H20.7956L20.0004 15.7999H17.2004V25.5999H22.8004C24.3404 25.5999 25.6004 24.3413 25.6004 22.7999V3.1999C25.6004 1.6599 24.3404 0.399902 22.8004 0.399902Z" fill="white" fill-opacity="0.8"/>
</svg>
