<svg width="26" height="20" viewBox="0 0 26 20" fill="none" xmlns="http://www.w3.org/2000/svg">
<path d="M26 2.66449V17.7326C26 18.7119 25.207 19.5049 24.2277 19.5049H20.0904V9.46024L13 14.7794L5.90958 9.46024V19.506H1.77233C1.5395 19.506 1.30894 19.4601 1.09384 19.371C0.878741 19.2818 0.683312 19.1512 0.518722 18.9865C0.354131 18.8218 0.223604 18.6263 0.1346 18.4112C0.0455957 18.196 -0.00014199 17.9654 3.31122e-07 17.7326V2.66449C3.31122e-07 0.472908 2.50142 -0.778341 4.25425 0.536825L5.90958 1.77941L13 7.09641L20.0904 1.77724L21.7458 0.536825C23.4975 -0.777258 26 0.472908 26 2.66449Z" fill="#EBEFFA"/>
</svg>
