<svg width="29" height="29" viewBox="0 0 29 29" fill="none" xmlns="http://www.w3.org/2000/svg">
<path d="M14.5 0.9375C7.01035 0.9375 0.9375 7.01035 0.9375 14.5C0.9375 21.9896 7.01035 28.0625 14.5 28.0625C21.9896 28.0625 28.0625 21.9896 28.0625 14.5C28.0625 7.01035 21.9896 0.9375 14.5 0.9375ZM15.605 17.8543C14.276 19.7252 11.6059 20.2701 9.52305 19.4679C7.43418 18.6717 5.95078 16.4647 6.12939 14.2154C6.1748 11.4636 8.70869 9.05078 11.4605 9.14463C12.7805 9.08408 14.0217 9.65625 15.0328 10.4646C14.5999 10.955 14.1549 11.4272 13.6766 11.8662C12.4626 11.0276 10.734 10.7885 9.52002 11.7572C7.78232 12.9591 7.70361 15.7957 9.37471 17.0884C11.0004 18.5627 14.0731 17.8301 14.5242 15.5717C13.507 15.5565 12.4838 15.5717 11.4666 15.5384C11.4636 14.9299 11.4605 14.3244 11.4636 13.7159C13.1649 13.7099 14.8693 13.7068 16.5737 13.722C16.6736 15.1539 16.4829 16.6736 15.605 17.8543ZM22.9463 15.2417C22.4377 15.2478 21.9291 15.2508 21.4205 15.2538C21.4145 15.7624 21.4114 16.271 21.4114 16.7796H19.8887C19.8826 16.271 19.8826 15.7654 19.8796 15.2568C19.371 15.2508 18.8624 15.2478 18.3538 15.2417V13.725C18.8624 13.7189 19.371 13.7159 19.8796 13.7159C19.8826 13.2073 19.8887 12.6987 19.8917 12.1901H21.4114L21.4205 13.7159C21.9291 13.722 22.4377 13.722 22.9463 13.725V15.2417Z" fill="white" fill-opacity="0.8"/>
</svg>
