<svg width="22" height="19" viewBox="0 0 22 19" fill="none" xmlns="http://www.w3.org/2000/svg">
<path d="M11 4.12114C13.76 4.12114 16 6.35895 16 9.11626C16 9.62576 15.9 10.1153 15.76 10.5748L18.82 13.6318C20.21 12.403 21.31 10.8645 22 9.10627C20.27 4.73054 16 1.62358 11 1.62358C9.73 1.62358 8.51 1.82339 7.36 2.19303L9.53 4.36091C10 4.22104 10.49 4.12114 11 4.12114ZM1.71 0.784402C1.32 1.17402 1.32 1.80341 1.71 2.19303L3.68 4.1611C2.06 5.44984 0.77 7.14818 0 9.11626C1.73 13.502 6 16.6089 11 16.6089C12.52 16.6089 13.97 16.3092 15.31 15.7897L18.03 18.5071C18.42 18.8967 19.05 18.8967 19.44 18.5071C19.83 18.1175 19.83 17.4881 19.44 17.0985L3.13 0.784402C2.74 0.394783 2.1 0.394783 1.71 0.784402ZM11 14.1114C8.24 14.1114 6 11.8736 6 9.11626C6 8.34701 6.18 7.61772 6.49 6.97835L8.06 8.54681C8.03 8.72664 8 8.91645 8 9.11626C8 10.7746 9.34 12.1133 11 12.1133C11.2 12.1133 11.38 12.0834 11.57 12.0434L13.14 13.6119C12.49 13.9316 11.77 14.1114 11 14.1114ZM13.97 8.78658C13.82 7.38795 12.72 6.29901 11.33 6.14916L13.97 8.78658Z" fill="#262626"/>
</svg>
