<svg width="27" height="27" viewBox="0 0 27 27" fill="none" xmlns="http://www.w3.org/2000/svg">
<path d="M13.5 10.152C12.8378 10.152 12.1905 10.3484 11.64 10.7162C11.0894 11.0841 10.6603 11.607 10.4069 12.2188C10.1534 12.8305 10.0871 13.5037 10.2163 14.1532C10.3455 14.8026 10.6644 15.3992 11.1326 15.8674C11.6008 16.3356 12.1974 16.6545 12.8468 16.7837C13.4963 16.9129 14.1695 16.8465 14.7812 16.5931C15.393 16.3397 15.9159 15.9106 16.2838 15.36C16.6516 14.8095 16.848 14.1622 16.848 13.5C16.848 13.0603 16.7614 12.625 16.5931 12.2188C16.4249 11.8126 16.1783 11.4435 15.8674 11.1326C15.5565 10.8217 15.1874 10.5751 14.7812 10.4069C14.375 10.2386 13.9397 10.152 13.5 10.152ZM26.9055 6.8445C26.8984 5.80197 26.7064 4.76897 26.3385 3.7935C26.0675 3.0797 25.6483 2.43148 25.1084 1.8916C24.5685 1.35172 23.9203 0.932469 23.2065 0.6615C22.231 0.293576 21.198 0.101602 20.1555 0.0944999C18.414 -9.15651e-08 17.901 0 13.5 0C9.099 0 8.586 -9.15651e-08 6.8445 0.0944999C5.80197 0.101602 4.76897 0.293576 3.7935 0.6615C3.0797 0.932469 2.43148 1.35172 1.8916 1.8916C1.35172 2.43148 0.932469 3.0797 0.6615 3.7935C0.293576 4.76897 0.101602 5.80197 0.0944999 6.8445C-9.15651e-08 8.586 0 9.099 0 13.5C0 17.901 -9.15651e-08 18.414 0.0944999 20.1555C0.109031 21.2017 0.300745 22.2379 0.6615 23.22C0.931268 23.9305 1.35017 24.575 1.89 25.11C2.42756 25.6531 3.07718 26.0724 3.7935 26.3385C4.76897 26.7064 5.80197 26.8984 6.8445 26.9055C8.586 27 9.099 27 13.5 27C17.901 27 18.414 27 20.1555 26.9055C21.198 26.8984 22.231 26.7064 23.2065 26.3385C23.9228 26.0724 24.5724 25.6531 25.11 25.11C25.6498 24.575 26.0687 23.9305 26.3385 23.22C26.7061 22.2397 26.898 21.2024 26.9055 20.1555C27 18.414 27 17.901 27 13.5C27 9.099 27 8.586 26.9055 6.8445ZM23.4765 17.6445C23.4332 18.4776 23.2554 19.2982 22.95 20.0745C22.6879 20.7221 22.2983 21.3103 21.8043 21.8043C21.3103 22.2983 20.7221 22.6879 20.0745 22.95C19.2908 23.2384 18.4657 23.3979 17.631 23.4225H9.369C8.53433 23.3979 7.70916 23.2384 6.9255 22.95C6.25604 22.7012 5.65147 22.3043 5.157 21.789C4.66785 21.3047 4.29009 20.7196 4.05 20.0745C3.7605 19.2917 3.60532 18.4655 3.591 17.631V13.5V9.369C3.60532 8.53446 3.7605 7.70834 4.05 6.9255C4.29878 6.25604 4.69567 5.65147 5.211 5.157C5.69745 4.67049 6.28191 4.29313 6.9255 4.05C7.70916 3.76165 8.53433 3.60208 9.369 3.5775H17.631C18.4657 3.60208 19.2908 3.76165 20.0745 4.05C20.744 4.29878 21.3485 4.69567 21.843 5.211C22.3321 5.69531 22.7099 6.28038 22.95 6.9255C23.2384 7.70916 23.3979 8.53433 23.4225 9.369V13.5C23.4225 16.281 23.517 16.5645 23.4765 17.631V17.6445ZM21.3165 7.6005C21.1558 7.16443 20.9023 6.76842 20.5737 6.43979C20.2451 6.11116 19.8491 5.85773 19.413 5.697C18.8142 5.48945 18.1836 5.38892 17.55 5.4H9.45C8.81316 5.40622 8.18244 5.52506 7.587 5.751C7.1576 5.90444 6.76578 6.14751 6.43759 6.46407C6.10939 6.78063 5.85233 7.16342 5.6835 7.587C5.48745 8.18824 5.39167 8.81765 5.4 9.45V17.55C5.41338 18.1861 5.53199 18.8156 5.751 19.413C5.91174 19.8491 6.16516 20.2451 6.49379 20.5737C6.82242 20.9023 7.21843 21.1558 7.6545 21.3165C8.2305 21.5283 8.83663 21.6468 9.45 21.6675H17.55C18.1868 21.6613 18.8176 21.5424 19.413 21.3165C19.8491 21.1558 20.2451 20.9023 20.5737 20.5737C20.9023 20.2451 21.1558 19.8491 21.3165 19.413C21.5424 18.8176 21.6613 18.1868 21.6675 17.55V13.5V9.45C21.6679 8.81253 21.5488 8.18062 21.3165 7.587V7.6005ZM13.5 18.657C12.8234 18.657 12.1535 18.5235 11.5285 18.2642C10.9036 18.0049 10.336 17.6248 9.85821 17.1457C9.38042 16.6667 9.00183 16.0981 8.74414 15.4725C8.48645 14.8469 8.35472 14.1766 8.3565 13.5C8.3565 12.4795 8.6593 11.4819 9.22656 10.6335C9.79381 9.78517 10.6 9.1242 11.5431 8.73427C12.4862 8.34435 13.5238 8.24302 14.5246 8.4431C15.5253 8.64318 16.4441 9.13568 17.1648 9.85825C17.8855 10.5808 18.3756 11.501 18.573 12.5022C18.7705 13.5035 18.6665 14.5408 18.2741 15.4829C17.8817 16.4249 17.2186 17.2294 16.3687 17.7945C15.5189 18.3595 14.5205 18.6597 13.5 18.657ZM18.9 9.3555C18.6016 9.32391 18.3254 9.183 18.1247 8.95991C17.924 8.73682 17.8129 8.44734 17.8129 8.14725C17.8129 7.84715 17.924 7.55768 18.1247 7.33459C18.3254 7.1115 18.6016 6.97059 18.9 6.939C19.1984 6.97059 19.4746 7.1115 19.6753 7.33459C19.876 7.55768 19.9871 7.84715 19.9871 8.14725C19.9871 8.44734 19.876 8.73682 19.6753 8.95991C19.4746 9.183 19.1984 9.32391 18.9 9.3555Z" fill="white" fill-opacity="0.8"/>
</svg>
