<svg width="788" height="192" viewBox="0 0 788 192" fill="none" xmlns="http://www.w3.org/2000/svg">
<mask id="mask0_1_20" style="mask-type:luminance" maskUnits="userSpaceOnUse" x="0" y="0" width="788" height="192">
<path d="M787.6 0H0.400391V192H787.6V0Z" fill="white"/>
</mask>
<g mask="url(#mask0_1_20)">
<path d="M261.836 117.253V63.6523H273.169V107.909H296.148V117.253H261.836ZM383.903 79.0677C383.694 76.9565 382.795 75.3164 381.208 74.1474C379.62 72.9783 377.465 72.3938 374.743 72.3938C372.894 72.3938 371.332 72.6555 370.058 73.179C368.785 73.685 367.808 74.3916 367.127 75.2989C366.464 76.2062 366.133 77.2357 366.133 78.3873C366.098 79.3469 366.298 80.1844 366.734 80.8998C367.188 81.6152 367.808 82.2346 368.593 82.758C369.378 83.264 370.285 83.7089 371.315 84.0928C372.344 84.4592 373.443 84.7733 374.612 85.035L379.428 86.1866C381.766 86.71 383.912 87.4079 385.866 88.2803C387.821 89.1527 389.513 90.2258 390.944 91.4995C392.374 92.7732 393.482 94.2738 394.268 96.0011C395.07 97.7285 395.48 99.7088 395.498 101.942C395.48 105.222 394.643 108.066 392.985 110.474C391.345 112.865 388.972 114.723 385.866 116.049C382.778 117.358 379.053 118.012 374.691 118.012C370.364 118.012 366.595 117.349 363.384 116.023C360.191 114.697 357.696 112.734 355.899 110.134C354.119 107.517 353.186 104.28 353.099 100.424H364.065C364.187 102.221 364.702 103.722 365.609 104.926C366.534 106.112 367.764 107.011 369.299 107.622C370.852 108.215 372.606 108.511 374.56 108.511C376.479 108.511 378.146 108.232 379.559 107.674C380.99 107.116 382.098 106.339 382.883 105.345C383.668 104.35 384.06 103.207 384.06 101.916C384.06 100.712 383.703 99.7001 382.987 98.8801C382.289 98.06 381.26 97.3621 379.899 96.7863C378.556 96.2105 376.907 95.6871 374.953 95.216L369.116 93.7503C364.597 92.6511 361.029 90.9324 358.412 88.5944C355.794 86.2563 354.495 83.107 354.512 79.1462C354.495 75.9009 355.358 73.0656 357.103 70.6403C358.865 68.215 361.282 66.3219 364.353 64.9609C367.424 63.6 370.913 62.9195 374.822 62.9195C378.8 62.9195 382.272 63.6 385.238 64.9609C388.222 66.3219 390.542 68.215 392.2 70.6403C393.858 73.0656 394.713 75.8747 394.765 79.0677H383.903ZM401.079 72.9958V63.6523H445.1V72.9958H428.691V117.253H417.489V72.9958H401.079ZM485.635 118.038C481.936 118.038 478.743 117.375 476.056 116.049C473.369 114.723 471.301 112.926 469.853 110.658C468.422 108.372 467.707 105.824 467.707 103.015C467.707 100.921 468.125 99.0633 468.963 97.4406C469.8 95.8179 470.97 94.3261 472.47 92.9652C473.971 91.5867 475.715 90.2171 477.704 88.8561L488.095 82.0252C489.438 81.1702 490.424 80.2716 491.052 79.3294C491.68 78.3698 491.994 77.3316 491.994 76.215C491.994 75.1506 491.567 74.1648 490.712 73.2575C489.857 72.3502 488.644 71.9053 487.074 71.9227C486.027 71.9227 485.12 72.1583 484.352 72.6294C483.584 73.083 482.983 73.685 482.546 74.4352C482.128 75.1681 481.918 75.9881 481.918 76.8954C481.918 78.0121 482.232 79.1462 482.86 80.2978C483.489 81.4494 484.326 82.6708 485.373 83.9619C486.42 85.2356 487.563 86.614 488.801 88.0971L514.215 117.253H502.594L481.395 93.6456C479.999 92.0578 478.603 90.4003 477.207 88.6729C475.829 86.9281 474.677 85.0786 473.752 83.1244C472.828 81.1528 472.365 79.0154 472.365 76.7122C472.365 74.1125 472.967 71.7744 474.171 69.6981C475.393 67.6218 477.103 65.9816 479.301 64.7777C481.499 63.5563 484.064 62.9457 486.996 62.9457C489.857 62.9457 492.326 63.5302 494.402 64.6992C496.496 65.8508 498.101 67.3862 499.218 69.3055C500.352 71.2073 500.919 73.3011 500.919 75.5868C500.919 78.1168 500.291 80.4112 499.035 82.4701C497.796 84.5115 496.051 86.3436 493.8 87.9663L482.86 95.8441C481.377 96.9259 480.278 98.0338 479.563 99.168C478.865 100.285 478.516 101.358 478.516 102.387C478.516 103.661 478.83 104.804 479.458 105.816C480.086 106.828 480.976 107.63 482.128 108.224C483.279 108.799 484.631 109.087 486.184 109.087C488.069 109.087 489.927 108.66 491.759 107.805C493.608 106.932 495.283 105.702 496.784 104.114C498.302 102.509 499.515 100.607 500.422 98.409C501.329 96.2105 501.783 93.7765 501.783 91.1069H511.022C511.022 94.3872 510.664 97.3446 509.949 99.9793C509.233 102.597 508.239 104.882 506.965 106.836C505.691 108.773 504.234 110.361 502.594 111.6C502.071 111.931 501.565 112.245 501.076 112.542C500.588 112.839 500.082 113.153 499.558 113.484C497.569 115.089 495.345 116.25 492.884 116.965C490.442 117.68 488.025 118.038 485.635 118.038ZM536.127 117.253V63.6523H571.617V72.9958H547.46V85.7678H569.261V95.1113H547.46V117.253H536.127ZM663.52 63.6523H674.853V98.4613C674.853 102.37 673.919 105.79 672.053 108.721C670.203 111.652 667.612 113.938 664.279 115.578C660.947 117.201 657.065 118.012 652.633 118.012C648.183 118.012 644.293 117.201 640.96 115.578C637.627 113.938 635.036 111.652 633.187 108.721C631.337 105.79 630.413 102.37 630.413 98.4613V63.6523H641.745V97.4929C641.745 99.5344 642.19 101.349 643.08 102.937C643.987 104.525 645.261 105.772 646.901 106.679C648.541 107.587 650.452 108.04 652.633 108.04C654.831 108.04 656.742 107.587 658.364 106.679C660.005 105.772 661.27 104.525 662.159 102.937C663.067 101.349 663.52 99.5344 663.52 97.4929V63.6523ZM729.01 63.6523V117.253H719.221L695.902 83.517H695.509V117.253H684.177V63.6523H694.122L717.258 97.3621H717.73V63.6523H729.01ZM757.374 117.253H738.373V63.6523H757.531C762.922 63.6523 767.563 64.7254 771.454 66.8715C775.345 69.0002 778.338 72.0623 780.431 76.0579C782.543 80.0535 783.598 84.8343 783.598 90.4003C783.598 95.9837 782.543 100.782 780.431 104.795C778.338 108.808 775.328 111.888 771.402 114.034C767.494 116.18 762.818 117.253 757.374 117.253ZM749.705 107.543H756.903C760.253 107.543 763.071 106.95 765.356 105.763C767.659 104.559 769.387 102.701 770.538 100.189C771.707 97.6587 772.292 94.3959 772.292 90.4003C772.292 86.4396 771.707 83.2029 770.538 80.6904C769.387 78.1779 767.668 76.3284 765.382 75.1419C763.097 73.9554 760.279 73.3622 756.929 73.3622H749.705V107.543Z" fill="white"/>
<path d="M586.102 99.4514C589.133 103.283 592.165 107.115 595.2 110.947L599.698 116.616L599.705 116.622C599.75 116.682 599.804 116.735 599.865 116.78C599.873 116.793 599.885 116.804 599.899 116.811C599.944 116.841 599.991 116.868 600.039 116.893C600.058 116.904 600.078 116.913 600.099 116.918C600.152 116.944 600.208 116.963 600.266 116.975H600.286C600.356 116.993 600.427 117.001 600.5 117C600.567 117.001 600.635 116.992 600.7 116.975C600.716 116.976 600.732 116.974 600.746 116.969C600.791 116.962 600.835 116.947 600.873 116.924C600.901 116.916 600.928 116.906 600.954 116.893C600.975 116.885 600.995 116.874 601.014 116.862C601.042 116.847 601.069 116.83 601.094 116.811L601.114 116.792C601.177 116.748 601.233 116.695 601.28 116.635L601.3 116.616L606.093 110.57C609.03 106.863 611.964 103.157 614.896 99.4512L615.07 99.2247C619.148 94.0715 623 89.2014 623 82.21C623 76.5846 620.629 71.1896 616.41 67.2123C612.19 63.2349 606.467 61 600.5 61C594.533 61 588.81 63.2345 584.59 67.2123C580.371 71.19 578 76.5851 578 82.21C578 89.2005 581.851 94.0708 585.929 99.2303L586.102 99.4514ZM600.499 73.912C602.833 73.9129 605.071 74.7876 606.721 76.3444C608.371 77.9008 609.297 80.011 609.296 82.2112C609.296 84.4119 608.368 86.5217 606.717 88.0768C605.065 89.6323 602.827 90.5052 600.493 90.5043C598.159 90.5034 595.92 89.6287 594.27 88.0723C592.621 86.5159 591.694 84.4052 591.695 82.2049C591.697 80.0052 592.626 77.8957 594.277 76.3408C595.928 74.7862 598.166 73.9124 600.499 73.912Z" fill="white"/>
<path fill-rule="evenodd" clip-rule="evenodd" d="M71.1462 95.2044C71.1218 95.2212 71.0955 95.2351 71.0675 95.2455C71.0339 95.2628 70.9991 95.2767 70.9625 95.2871C70.9119 95.3171 70.8552 95.3367 70.796 95.3454C70.7771 95.3523 70.7557 95.3552 70.735 95.3535C70.6496 95.3766 70.5611 95.3876 70.4727 95.3864C70.3781 95.3881 70.2842 95.3772 70.1927 95.3535H70.1664C70.0908 95.3373 70.017 95.3125 69.9481 95.279C69.92 95.2715 69.8938 95.2605 69.8694 95.2455C69.8059 95.2131 69.7449 95.1767 69.6857 95.138C69.6668 95.1288 69.6516 95.1143 69.6418 95.0964C69.5613 95.0381 69.4899 94.9682 69.4313 94.8896L69.4228 94.8816L66.7247 91.466L61.0209 129.491L20.9827 134.669L27.9629 116.901C34.6194 116.916 39.803 116.535 43.5657 115.1C45.7474 114.268 47.5789 113.041 48.9476 111.251C50.2694 109.522 50.9982 107.479 51.3676 105.237L57.9267 80.3129C56.0711 77.9578 54.216 75.6027 52.3615 73.2475L38.339 77.0718L36.8522 77.4773L36.2888 78.9116L23.0182 112.691L13.3669 137.258L2.50921 164.896L0.398438 170.269L6.03359 169.017L60.6015 156.89L109.032 168.998L109.755 169.179L110.48 169.008L141.189 161.782L162.001 156.885L216.591 169.017L222.44 170.316L220.08 164.809L208.235 137.171L183.229 78.8248L182.604 77.3646L181.05 77.0318L172.338 75.1648C172.018 77.2195 171.508 79.2115 170.827 81.1222L178.21 82.7043L200.622 134.998L159.81 132.389L156.748 120.137C161.124 120.293 164.937 120.28 168.143 120.009C172.213 119.664 175.825 118.872 178.343 117.026C178.409 116.977 178.475 116.928 178.54 116.878C176.684 116.799 174.851 116.051 173.435 114.636L172.009 113.208C170.882 113.498 169.443 113.735 167.625 113.889C163.881 114.205 159.013 114.14 152.931 113.818L152.716 113.807L152.501 113.826C149.272 114.108 146.522 114.449 144.236 114.915C141.976 115.376 139.982 115.997 138.374 116.937C136.694 117.919 135.39 119.282 134.703 121.135C134.062 122.865 134.078 124.705 134.367 126.492L137.178 156.417L112.848 162.142V138.381V107.394L149.989 103.856L161.561 102.754L156.996 98.1867C151.968 101.281 146.049 103.057 139.72 103.057C134.746 103.057 130.031 101.959 125.801 99.9905L109.486 101.544L106.706 101.809V104.601V134.873L67.2139 129.608L72.6343 93.4718L71.5219 94.8816L71.4957 94.9064C71.4341 94.9849 71.3609 95.0548 71.2773 95.1132L71.2511 95.138C71.2182 95.1629 71.1828 95.1854 71.1462 95.2044ZM73.6137 86.9424L70.4715 90.9248L67.3908 87.025L69.191 75.0237L59.9214 77.5517C58.5452 75.805 57.1693 74.0582 55.7937 72.3114L72.1185 67.8592L72.8928 67.648L73.6713 67.8427L86.2025 70.9755C84.8138 72.7384 83.4246 74.5014 82.035 76.2644L75.4619 74.6211L73.6137 86.9424ZM85.5192 77.1354L109.032 83.0136L109.387 83.1023C108.45 80.928 107.74 78.6328 107.287 76.2466L89.6802 71.8449C89.6414 71.8942 89.6026 71.9434 89.5638 71.9927L89.3362 72.2908C88.0642 73.9057 86.7919 75.5205 85.5192 77.1354ZM175.607 112.465L174.989 111.846C175.274 111.583 175.432 111.324 175.53 111.058C175.667 110.687 175.76 110.094 175.625 109.146C175.379 107.426 174.458 105.014 172.599 101.703L165.525 102.377L159.895 96.7435L169.801 95.8001L168.187 91.995L180.725 104.541C181.204 105.856 181.537 107.102 181.705 108.278C181.941 109.93 181.87 111.571 181.319 113.111C179.538 114.229 177.157 114.014 175.607 112.465ZM170.556 81.8546L176.577 96.0461L167.858 87.3219C168.917 85.5982 169.823 83.7694 170.556 81.8546ZM112.429 82.3875C111.591 80.5379 110.936 78.5881 110.487 76.5608L119.298 73.6239C119.657 75.6864 120.321 77.6445 121.242 79.4499L112.429 82.3875ZM165.696 73.7415L160.295 72.5843C160.041 74.6717 159.475 76.6635 158.646 78.5121L162.849 79.4126L165.407 85.4422C167.376 82.1583 168.738 78.4656 169.33 74.5202L165.696 73.7415ZM136.444 67.9086L122.25 72.6398C122.557 74.7219 123.227 76.686 124.195 78.4656L137.591 74.0002L140.97 74.7243L143.657 87.2633C145.739 86.7888 147.682 85.946 149.412 84.8073L147.554 76.135L155.563 77.8514C156.46 76.0344 157.054 74.041 157.278 71.9377L144.2 69.1352L138.058 67.8192L137.239 67.6436L136.444 67.9086ZM145.973 98.0694L144.301 90.2668C146.366 89.8007 148.314 89.0262 150.095 87.9944L152.094 97.3234C148.323 99.0358 144.134 99.9864 139.72 99.9864C137.492 99.9864 135.322 99.7435 133.234 99.2826L145.973 98.0694ZM164.501 151.149L212.075 161.721L203.333 141.325L161.374 138.643L164.501 151.149ZM150.432 120.198L154.396 136.055L158.247 151.459L143.213 154.997L140.472 125.81L140.462 125.698L140.443 125.587C140.228 124.315 140.326 123.637 140.462 123.27C140.566 122.99 140.778 122.646 141.475 122.238C142.244 121.788 143.488 121.336 145.464 120.933C146.84 120.652 148.482 120.412 150.432 120.198ZM106.706 162.086V141.07L63.7078 135.336L18.4195 141.194L10.3364 161.769L59.9769 150.738L60.6846 150.58L61.3878 150.756L106.706 162.086ZM30.3823 110.743C35.6162 110.658 39.0748 110.24 41.3774 109.362C42.7243 108.848 43.5291 108.226 44.0684 107.521C44.6231 106.795 45.071 105.753 45.3257 104.126L45.3499 103.972L45.3898 103.82L51.7134 79.7903L41.4417 82.5917L30.3823 110.743Z" fill="#BBBBBB"/>
<path d="M169.668 70.0479C169.668 76.6541 167.523 82.7566 163.91 87.7076L182.134 105.943C183.934 107.742 183.934 110.664 182.134 112.463C180.335 114.262 177.413 114.262 175.613 112.463L157.389 94.2275C152.437 97.8544 146.333 99.9845 139.726 99.9845C123.185 99.9845 109.783 86.585 109.783 70.0479C109.783 53.5108 123.185 40.1113 139.726 40.1113C156.266 40.1113 169.668 53.5108 169.668 70.0479ZM139.726 90.7732C151.17 90.7732 160.455 81.49 160.455 70.0479C160.455 58.6058 151.17 49.3226 139.726 49.3226C128.281 49.3226 118.996 58.6058 118.996 70.0479C118.996 81.49 128.281 90.7732 139.726 90.7732Z" fill="white"/>
<path d="M52.7922 69.1281C56.5148 73.8562 60.2396 78.5838 63.9674 83.3116L69.4931 90.3066L69.5012 90.3142C69.5561 90.3879 69.623 90.4534 69.6985 90.5081C69.7076 90.5249 69.7219 90.5384 69.7396 90.5471C69.7951 90.5834 69.8523 90.6175 69.9118 90.6478C69.9347 90.6619 69.9593 90.6722 69.9856 90.6792C70.0502 90.7106 70.1194 90.7339 70.1903 90.7491H70.2149C70.3007 90.7713 70.3888 90.7816 70.4774 90.7799C70.5603 90.781 70.6433 90.7707 70.7233 90.7491C70.7428 90.7507 70.7628 90.748 70.7805 90.7415C70.836 90.7334 70.8892 90.715 70.9367 90.6868C70.971 90.677 71.0036 90.664 71.035 90.6478C71.0613 90.638 71.0859 90.625 71.1088 90.6093C71.1431 90.5915 71.1763 90.5704 71.2072 90.5471L71.2318 90.5238C71.3101 90.4691 71.3787 90.4036 71.4365 90.3299L71.4611 90.3066L77.3478 82.846C80.9554 78.2733 84.5602 73.7005 88.162 69.1278L88.3753 68.8484C93.3847 62.4902 98.1155 56.4813 98.1155 47.8552C98.1155 40.9144 95.2038 34.2578 90.0206 29.3504C84.8375 24.4431 77.8075 21.6855 70.4779 21.6855C63.1484 21.6855 56.1178 24.4425 50.9352 29.3504C45.7527 34.2583 42.8398 40.9149 42.8398 47.8552C42.8398 56.4802 47.5706 62.4893 52.58 68.8553L52.7922 69.1281ZM70.477 37.6168C73.344 37.6179 76.0931 38.6972 78.12 40.6179C80.1463 42.5383 81.2844 45.1419 81.2832 47.8566C81.282 50.5719 80.1422 53.175 78.1142 55.0937C76.0857 57.0129 73.3358 58.09 70.4688 58.0889C67.6018 58.0878 64.8521 57.0085 62.8258 55.0882C60.7995 53.1678 59.6615 50.5636 59.6626 47.8489C59.6649 45.1347 60.8059 42.532 62.8333 40.6135C64.8613 38.6953 67.6106 37.6173 70.477 37.6168Z" fill="white"/>
<path fill-rule="evenodd" clip-rule="evenodd" d="M344.329 107.56C348.374 102.839 350.818 96.7048 350.818 90C350.818 75.0883 338.73 63 323.818 63C308.907 63 296.818 75.0883 296.818 90C296.818 104.912 308.907 117 323.818 117C330.55 117 336.706 114.536 341.435 110.462C340.828 109.912 340.338 109.45 339.996 109.102L331.823 100.924C329.602 102.551 326.865 103.506 323.902 103.506C316.484 103.506 310.474 97.497 310.474 90.0809C310.474 82.6649 316.484 76.6559 323.902 76.6559C331.319 76.6559 337.33 82.6649 337.33 90.0809C337.33 93.0435 336.368 95.7801 334.747 98.0004L342.92 106.178C342.994 106.252 343.222 106.475 343.574 106.821C343.784 107.026 344.038 107.274 344.329 107.56ZM333.198 90.0809C333.198 95.2121 329.034 99.3752 323.902 99.3752C318.77 99.3752 314.606 95.2121 314.606 90.0809C314.606 84.9497 318.77 80.7866 323.902 80.7866C329.034 80.7866 333.198 84.9497 333.198 90.0809Z" fill="white"/>
</g>
</svg>
