<svg width="37" height="37" viewBox="0 0 37 37" fill="none" xmlns="http://www.w3.org/2000/svg">
<g clip-path="url(#clip0_126_79)">
<path d="M18.0488 0C8.08071 0 0 8.08071 0 18.0488C9.96807 18.0488 18.0488 9.96807 18.0488 0Z" fill="#304AC1"/>
<path d="M18.0488 36.0975C28.0169 36.0975 36.0976 28.0168 36.0976 18.0488C26.1295 18.0488 18.0488 26.1295 18.0488 36.0975Z" fill="#304AC1"/>
<path d="M18.0488 0C28.0169 0 36.0976 8.08071 36.0976 18.0488C26.1295 18.0488 18.0488 9.96807 18.0488 0Z" fill="#304AC1"/>
<path d="M18.0488 36.0975C8.08071 36.0975 -8.71436e-07 28.0168 0 18.0488C9.96807 18.0488 18.0488 26.1295 18.0488 36.0975Z" fill="#304AC1"/>
</g>
<defs>
<clipPath id="clip0_126_79">
<rect width="37" height="36.0976" fill="#304AC1"/>
</clipPath>
</defs>
</svg>
