<svg width="553" height="318" viewBox="0 0 553 318" fill="none" xmlns="http://www.w3.org/2000/svg">
<path d="M251.196 304.981C251.196 304.981 259.29 249.828 308.329 241.347C357.367 232.871 351.435 163.042 418.437 165.818C485.439 168.6 471.632 233.565 498.294 248.154C524.955 262.747 537.334 304.981 537.334 304.981H251.196Z" fill="#87A6DC"/>
<path d="M259.57 304.98C259.57 304.98 259.57 260.259 206.987 244.51C154.402 228.762 166.922 146.734 101.19 159.353C35.4594 171.972 67.3863 255.891 41.7205 274.188C16.0546 292.486 21.6875 304.979 21.6875 304.979H259.57V304.98Z" fill="#87A6DC"/>
<path d="M517.159 305.225L515.173 305.26L551.206 175.076C562.45 179.628 517.159 305.225 517.159 305.225ZM504.104 305.454L469.755 206.472C478.656 206.035 490.168 244.735 495.529 264.807C497.333 272.051 498.525 276.548 498.525 276.548C498.525 276.548 497.402 271.815 495.529 264.807C488.316 235.81 471.293 162.613 481.473 155.668L508.285 305.382L504.104 305.454ZM512.537 305.306L515.599 128.469C528.005 136.933 517.159 282.011 517.159 282.011C517.159 282.011 538.258 177.778 550.038 174.992L513.975 305.279L512.537 305.306Z" fill="#698DC5"/>
<path d="M495.528 264.806C497.401 271.814 498.524 276.547 498.524 276.547C498.524 276.547 497.333 272.05 495.528 264.806Z" fill="#9DADEC"/>
<path d="M509.45 305.361L482.563 155.227C496.627 152.762 509.488 282.011 509.488 282.011C509.488 282.011 500.17 128.073 514.419 128.073C514.432 128.073 514.443 128.078 514.456 128.078L511.387 305.327L509.45 305.361ZM499.074 305.54C499.074 305.54 456.323 213.42 468.381 206.855C468.464 206.811 468.548 206.785 468.631 206.747L502.892 305.476L499.074 305.54Z" fill="#698DC5"/>
<path d="M513.974 305.278L550.037 174.992C550.414 174.899 550.781 174.913 551.139 175.039C551.163 175.046 551.182 175.068 551.206 175.075L515.173 305.259L513.974 305.278ZM511.387 305.326L514.456 128.077C514.857 128.085 515.238 128.222 515.6 128.468L512.538 305.305L511.387 305.326ZM508.285 305.383L481.473 155.67C481.666 155.539 481.869 155.429 482.083 155.344C482.244 155.284 482.403 155.259 482.563 155.228L509.45 305.363L508.285 305.383ZM502.892 305.477L468.631 206.747C469.001 206.581 469.375 206.491 469.755 206.473L504.104 305.455L502.892 305.477Z" fill="#CCE9FF"/>
<path d="M49.6197 305.361L22.734 155.227C36.7979 152.764 49.6585 282.011 49.6585 282.011C49.6585 282.011 40.3415 128.073 54.5912 128.073C54.6034 128.073 54.6144 128.078 54.6266 128.078L51.5597 305.327L49.6197 305.361ZM44.2733 305.454L9.92651 206.472C18.8254 206.032 30.3377 244.734 35.7018 264.807C37.5046 272.05 38.6958 276.547 38.6958 276.547C38.6958 276.547 37.5732 271.815 35.7018 264.807C28.4874 235.81 11.465 162.61 21.6457 155.668L48.4573 305.381L44.2733 305.454Z" fill="#698DC5"/>
<path d="M35.7017 264.806C37.5741 271.814 38.6956 276.547 38.6956 276.547C38.6956 276.547 37.5044 272.05 35.7017 264.806Z" fill="#9DADEC"/>
<path d="M39.2444 305.54C39.2444 305.54 -3.50359 213.42 8.55402 206.855C8.63697 206.811 8.71992 206.785 8.80287 206.745L43.0656 305.476L39.2444 305.54ZM57.3308 305.225L55.3444 305.26L91.3779 175.076C102.62 179.628 57.3308 305.225 57.3308 305.225ZM52.71 305.306L55.7725 128.469C68.1774 136.933 57.3319 282.011 57.3319 282.011C57.3319 282.011 78.43 177.778 90.21 174.992L54.1467 305.278L52.71 305.306Z" fill="#698DC5"/>
<path d="M54.1465 305.278L90.2099 174.992C90.587 174.899 90.9542 174.913 91.3103 175.039C91.3346 175.046 91.3546 175.068 91.3789 175.075L55.3454 305.259L54.1465 305.278ZM51.5585 305.326L54.6254 128.077C55.028 128.085 55.4085 128.222 55.7712 128.468L52.7087 305.305L51.5585 305.326ZM48.4561 305.383L21.6456 155.668C21.8392 155.538 22.0404 155.428 22.2561 155.343C22.4154 155.283 22.5746 155.255 22.7339 155.227L49.6197 305.362L48.4561 305.383ZM43.0655 305.477L8.80273 206.745C9.17214 206.58 9.54707 206.49 9.92643 206.472L44.2733 305.454L43.0655 305.477Z" fill="#CCE9FF"/>
<path d="M474.719 186.284L446.935 304.263L444.718 304.244L437.903 269.625C437.557 255.645 439.849 215.164 474.719 186.284ZM475.185 304.509L462.89 304.405L513.856 246.466C501.091 292.223 475.185 304.509 475.185 304.509ZM513.574 245.043L461.364 304.391L458.121 304.359L474.262 271.047C480.312 261.672 493.156 246.536 513.574 245.043ZM474.009 268.925L456.846 304.35L448.112 304.273L475.694 187.166C488.445 219.36 479.724 252.972 474.009 268.925ZM424.323 304.066C424.323 304.066 385.1 288.779 384.406 228.52L436.268 304.17L424.323 304.066ZM436.921 270.591L443.544 304.233L437.675 304.184L384.829 227.097C422.17 242.842 433.611 262.323 436.921 270.591Z" fill="#2F479C"/>
<path d="M514.279 244.981C514.144 245.488 513.997 245.968 513.856 246.467L462.89 304.405L461.365 304.391L513.574 245.043C513.811 245.026 514.04 244.995 514.279 244.981ZM475.185 185.894C475.362 186.317 475.526 186.743 475.693 187.166L448.112 304.273L446.933 304.263L474.718 186.285C474.878 186.157 475.028 186.025 475.185 185.894ZM384.828 227.096L437.674 304.183L436.267 304.169L384.405 228.518C384.398 227.982 384.389 227.449 384.389 226.902C384.54 226.966 384.679 227.034 384.828 227.096Z" fill="#2E186A"/>
<path d="M470.527 277.601C470.281 278.135 470.142 278.419 470.142 278.419C470.142 278.419 470.27 278.127 470.527 277.601Z" fill="#577BC2"/>
<path d="M470.527 277.602C470.27 278.128 470.142 278.42 470.142 278.42C470.142 278.42 470.281 278.137 470.527 277.602C471.105 276.414 472.339 274.024 474.262 271.047L458.121 304.359L456.846 304.349L474.009 268.924C472.471 273.222 471.149 276.241 470.527 277.602ZM438.195 274.609C438.195 274.609 437.981 272.796 437.903 269.626L444.718 304.244L443.544 304.233L436.921 270.591C437.933 273.115 438.195 274.609 438.195 274.609Z" fill="#577BC2"/>
<path d="M100.95 278.933L94.8353 306.083H91.8048L74.0226 184.256C105.191 215.909 103.676 259.197 100.95 278.933ZM142.966 223.183L97.441 306.083H96.012L102.759 276.133C108.101 260.586 119.904 235.503 142.966 223.183ZM105.565 306.083H98.7538L143.918 223.842C143.456 287.523 105.565 306.083 105.565 306.083ZM69.9414 306.083C69.9414 306.083 38.9391 291.507 24.7115 242.972L75.0224 306.083H69.9414ZM69.2303 280.675L78.6456 306.083H76.4956L24.9604 241.436C49.4583 249.15 62.936 268.508 69.2303 280.675ZM73.057 185.615L90.6413 306.083H79.8755L70.4458 280.635C65.2498 261.877 57.3529 221.298 73.057 185.615Z" fill="#2F479C"/>
<path d="M143.929 222.67C143.929 223.063 143.922 223.45 143.92 223.841L98.7549 306.082H97.441L142.966 223.183C143.285 223.011 143.605 222.837 143.929 222.67ZM73.777 184.001C73.8611 184.086 73.9385 184.174 74.0226 184.256L91.8048 306.082H90.6413L73.057 185.614C73.2937 185.078 73.5304 184.54 73.777 184.001ZM24.9604 241.436L76.4956 306.082H75.0224L24.7116 242.972C24.5346 242.37 24.3499 241.786 24.1785 241.177C24.4439 241.256 24.6983 241.351 24.9604 241.436Z" fill="#2F479C"/>
<path d="M99.6367 286.649C99.1887 288.469 98.9885 289.509 98.9885 289.509C98.9885 289.509 99.2551 288.499 99.6367 286.649C100.22 284.289 101.222 280.608 102.759 276.132L96.0123 306.082H94.8355L100.951 278.932C100.497 282.208 100.012 284.831 99.6367 286.649Z" fill="#2F479C"/>
<path d="M99.6365 286.649C99.2549 288.5 98.9884 289.51 98.9884 289.51C98.9884 289.51 99.1886 288.47 99.6365 286.649ZM73.0494 289.125C73.505 290.456 73.7771 291.166 73.7771 291.166C73.7771 291.166 73.5393 290.416 73.0494 289.125C72.4377 287.338 71.4965 284.432 70.4458 280.635L79.8756 306.083H78.6468L69.2314 280.675C71.1094 284.301 72.347 287.279 73.0494 289.125Z" fill="#2F479C"/>
<path d="M73.0492 289.125C73.5403 290.416 73.7769 291.166 73.7769 291.166C73.7769 291.166 73.5038 290.456 73.0492 289.125Z" fill="#2F479C"/>
<path d="M276.286 272.043C470.729 272.043 552.573 304.401 552.573 304.401C552.573 304.401 470.729 318 276.286 318C81.8429 318 0 304.401 0 304.401C0 304.401 81.8429 272.043 276.286 272.043Z" fill="#CFE6FD"/>
<path d="M237.377 293.878C237.377 293.878 229.767 298.611 223.933 299.113C218.099 299.614 214.827 300.367 214.401 304.239C213.974 308.11 230.122 306.856 232.896 306.283C235.671 305.709 248.261 306.784 249.969 305.709C251.677 304.634 249.827 294.382 249.115 292.876C248.405 291.369 237.377 293.878 237.377 293.878Z" fill="#242D38"/>
<path d="M237.723 290.318L237.7 293.86C237.7 293.86 245.887 295.091 248.35 292.886L248.665 289.577L237.723 290.318Z" fill="#D3D3D3"/>
<path d="M276.856 292.783C276.856 292.783 272.197 298.332 267.345 299.605C262.494 300.879 257.086 303.273 257.136 306.379C257.188 309.487 273.106 309.792 278.868 306.992C284.629 304.19 287.965 303.464 288.824 301.103C289.683 298.738 287.472 292.551 287.512 291.806C287.561 290.884 276.856 292.783 276.856 292.783Z" fill="#242D38"/>
<path d="M276.757 290.103C276.757 290.103 276.827 293.272 276.924 293.322C277.019 293.374 286.724 294.309 287.359 292.345C287.915 290.626 287.845 288.593 287.845 288.593L276.757 290.103Z" fill="#D3D3D3"/>
<path d="M251.312 160.041C251.312 160.041 226.877 201.611 221.713 211.48C216.93 220.626 224.41 240.533 225.561 247.126C226.763 254.014 238.144 288.006 237.462 290.412C236.779 292.817 250.026 289.578 250.026 289.578C250.026 289.578 242.328 229.272 241.533 223.197C240.737 217.122 267.938 179.046 269.532 181.452C271.122 183.858 272.044 226.167 272.839 232.81C273.635 239.459 276.216 289.898 276.216 289.898C276.216 289.898 288.039 291.849 290.654 287.609C290.654 287.609 291.335 234.547 291.45 229.848C291.563 225.147 297.766 178.564 292.019 157.293C288.98 146.056 251.312 160.041 251.312 160.041Z" fill="#242D38"/>
<path d="M280.029 52.9065L269.313 63.0792L269.185 63.2072L265.118 67.0659L263.125 65.1058L258.613 60.7012L258.087 60.171L259.84 58.2266L261.164 56.764L261.546 56.3305L263.221 54.4669L263.603 54.0491L265.198 52.2653C265.198 52.2653 265.198 52.2653 265.198 52.2496L271.179 45.6433L271.529 45.2556L272.534 46.1735L272.996 46.5745L280.029 52.9065Z" fill="#514E58"/>
<path d="M265.531 65.5873L278.432 53.3362L271.086 46.7106L259.45 59.6187L265.531 65.5873Z" fill="#3E3B42"/>
<path d="M256.657 67.2946C256.657 67.2946 258.902 66.7523 258.24 64.0398C257.578 61.3308 258.614 60.7089 258.614 60.7089L266.434 68.3489C266.434 68.3489 262.636 72.0409 261.483 72.1883C260.331 72.3332 255.498 68.7728 256.657 67.2946Z" fill="#F1B99E"/>
<path d="M266.435 68.3491C266.435 68.3491 271.193 65.279 271.641 64.8189C272.09 64.3612 274.219 62.3104 275.09 61.0967C275.961 59.8817 272.488 60.1812 271.481 61.4409C270.474 62.703 269.571 63.0592 268.871 63.3394C268.172 63.616 263.957 63.8672 263.12 65.1136C262.286 66.3599 266.435 68.3491 266.435 68.3491ZM260.085 59.0653C260.085 59.0653 260.653 59.8153 261.109 58.9457C261.564 58.0749 261.527 56.0713 260.372 56.5532C259.213 57.0351 260.085 59.0653 260.085 59.0653ZM261.551 56.4119C261.551 56.4119 261.75 57.8938 262.469 57.2259C263.185 56.5593 263.904 54.0786 262.656 54.1426C261.403 54.2042 261.551 56.4119 261.551 56.4119ZM263.596 54.2489C263.596 54.2489 263.593 56.0363 264.424 55.5242C265.05 55.1353 265.948 51.918 264.7 51.9808C263.45 52.0436 263.596 54.2489 263.596 54.2489ZM330.422 158.073C330.422 158.073 333.198 160.058 334.865 159.695C336.533 159.331 338.877 159.63 339.608 159.763C340.586 159.938 343.931 159.405 343.557 160.591C343.182 161.777 338.054 161.715 336.95 161.905C335.847 162.096 339.259 165.041 339.367 166.094C339.476 167.145 333.222 172.768 331.164 170.462C329.105 168.158 328.709 164.235 328.252 163.907C327.794 163.578 326.675 162.292 326.675 162.292L330.422 158.073Z" fill="#F1B99E"/>
<path d="M339.039 165.43C339.039 165.43 344.783 172.938 344.675 173.79C344.568 174.641 344.075 174.958 343.504 174.284C342.933 173.604 337.708 167.203 337.708 167.203C337.708 167.203 342.761 177.343 342.837 178.04C342.88 178.448 341.956 179.11 341.611 178.778C341.266 178.448 335.602 168.738 335.602 168.738C335.602 168.738 340.301 178.213 340.176 178.835C340.064 179.377 339.077 179.806 338.674 179.131C338.27 178.458 333.342 169.952 333.342 169.952C333.342 169.952 336.271 177.103 335.837 177.608C335.571 177.916 334.798 178.519 334.107 176.647C333.416 174.771 331.267 170.566 331.267 170.566L339.039 165.43Z" fill="#F1B99E"/>
<path d="M334.561 159.03C334.561 159.03 328.801 163.618 326.525 163.005C324.251 162.393 305.298 136.115 303.784 131.527C302.269 126.942 300.599 113.342 300.599 113.342C300.599 113.342 295.706 127.001 295.061 133.574C294.414 140.143 291.751 152.179 291.751 152.179L252.893 154.552C252.893 154.552 251.375 152.156 252.034 147.065C252.69 141.97 254.467 129.823 253.328 123.29C252.192 116.76 253.176 105.524 253.176 105.524C253.176 105.524 236.923 110.439 235.029 110.972C233.132 111.509 228.207 108.528 226.917 105.47C225.63 102.416 256.48 65.5874 256.48 65.5874L263.59 71.7323L254.827 86.8385C255.122 86.638 256.967 85.8965 259.443 84.9424C265.488 82.6175 275.281 79.0342 275.281 79.0342C275.281 79.0342 289.078 78.8047 290.139 78.9605C291.2 79.1127 304.845 85.8373 306.815 87.5172C308.789 89.196 314.244 123.885 315.305 126.178C316.367 128.47 334.561 159.03 334.561 159.03Z" fill="#375FB5"/>
<path d="M252.893 154.549C252.893 154.549 251.924 155.548 251.312 160.043C251.312 160.043 288.039 158.673 292.018 157.296C292.018 157.296 292.56 152.328 291.75 152.178C290.861 152.01 252.893 154.549 252.893 154.549Z" fill="#242D38"/>
<path d="M290.139 78.9583C289.759 80.6382 277.025 90.4933 277.025 90.4933C277.025 90.4933 274.131 79.5042 275.281 79.032C275.732 78.8484 275.976 77.9885 276.108 77.0163C276.231 76.0875 276.253 75.0561 276.251 74.3979C276.251 73.9897 276.24 73.7252 276.24 73.7252C276.24 73.7252 277.951 72.1733 280.118 70.3315C283.906 67.1093 289.087 63.0139 288.954 64.7965C288.948 64.8919 288.926 65.0042 288.888 65.1323C287.722 69.0803 290.139 78.9583 290.139 78.9583Z" fill="#F1B99E"/>
<path d="M275.637 78.6931L272.027 80.3332L273.613 95.0022L277.024 90.495L275.637 78.6931Z" fill="#242D38"/>
<path d="M289.962 78.2006L277.024 90.4952L278.695 95.4867L294.199 80.6583L289.962 78.2006Z" fill="#242D38"/>
<path d="M283.366 152.394C283.366 152.394 283.763 157.506 283.729 158.827L285.44 158.623C285.44 158.623 285.397 153.245 285.193 152.327L283.366 152.394ZM255.975 154.204C255.975 154.204 254.976 158.74 254.824 160.472L256.623 160.382C256.623 160.382 257.439 154.682 257.69 154.099L255.975 154.204Z" fill="#242D38"/>
<path d="M266.978 153.34C266.969 153.295 266.955 151.725 267.124 145.144C267.192 142.47 267.417 135.185 268.347 130.808C269.724 124.34 269.82 121.33 269.324 115.755C268.489 106.393 275.691 94.8868 275.725 94.7625L276.655 95.004C276.623 95.1272 269.816 106.429 270.636 115.62C271.145 121.344 270.962 124.918 269.572 131.456C268.69 135.6 268.559 142.5 268.493 145.086C268.33 151.465 268.251 153.152 268.26 153.197L266.978 153.34Z" fill="#B1C5EA"/>
<path d="M277.844 95.351C277.844 95.351 276.873 113.189 265.425 115.786C253.978 118.384 238.742 128.392 234.269 133.97L228.81 141.229V133.129C228.81 133.129 231.085 119.815 264.97 114.285C264.97 114.285 274.692 113.638 274.337 94.9187C274.337 94.9199 277.91 94.572 277.844 95.351Z" fill="#B1C5EA"/>
<path d="M286.575 68.933C286.575 68.933 286.575 68.933 286.574 68.9342C286.548 68.9632 286.025 69.6359 285.144 70.5864C283.277 72.6021 279.808 75.8822 276.108 77.0163C276.231 76.0875 276.253 75.0561 276.251 74.3979C275.885 74.3617 275.522 74.2904 275.163 74.1769C276.283 72.526 277.847 70.8219 277.847 70.8219L280.119 70.3327L286.575 68.933Z" fill="#A77860"/>
<path d="M291.686 53.5809C291.383 55.0918 290.554 56.5386 289.629 57.6002C289.995 59.913 289.646 63.5302 289.646 63.5302C289.406 63.9661 289.183 64.3997 288.96 64.8007C287.828 66.8248 286.887 68.3526 286.568 68.9323C286.568 68.948 286.552 68.9637 286.536 68.9806C286.344 69.3647 285.835 69.9456 285.149 70.5881C283.171 72.419 279.567 74.7656 276.25 74.396C275.884 74.3634 275.517 74.2994 275.167 74.1714C273.843 73.768 272.312 73.0144 271.562 71.2294C270.828 69.4456 270.287 67.7427 269.888 66.0869V66.07C269.648 65.0736 269.473 64.0942 269.329 63.1449C269.329 63.1135 269.314 63.0978 269.314 63.0809C269.266 62.7439 269.233 62.4227 269.201 62.1014C268.325 54.3865 270.51 48.7138 271.323 46.9276C271.498 46.5423 271.611 46.3334 271.611 46.3334C271.611 46.3334 271.945 46.2694 272.535 46.174L272.997 46.5749C275.581 46.8165 278.164 45.9795 282.837 46.6715C288.355 47.4735 282.932 57.151 282.932 57.151L286.027 56.8454C286.027 55.9952 286.154 55.0302 286.313 54.1449C286.838 51.1872 292.308 50.4626 291.686 53.5809Z" fill="#F1B99E"/>
<path d="M272.534 46.1726L272.996 46.5736C272.551 46.541 272.087 46.4613 271.61 46.3308C271.61 46.3308 271.434 46.0748 271.18 45.6412L271.53 45.2535L272.534 46.1726ZM291.687 53.5808C291.383 55.0917 290.554 56.5385 289.629 57.6001C289.502 56.7632 289.263 56.1049 288.896 55.832C287.476 54.8187 286.026 56.8429 286.026 56.8429C286.026 55.9926 286.153 55.0277 286.312 54.1424C286.838 51.1871 292.308 50.4625 291.687 53.5808Z" fill="#515154"/>
<path d="M291.686 53.5813C291.383 55.0922 290.554 56.539 289.629 57.6006C288.671 58.7093 287.619 59.3832 286.997 59.2878C286.263 59.1598 286.026 58.1308 286.026 56.8434C286.026 55.9932 286.153 55.0282 286.312 54.1429C286.838 51.1876 292.308 50.463 291.686 53.5813Z" fill="#F1B99E"/>
<path d="M273.865 94.6689C273.865 94.6689 276.041 96.5614 278.532 95.0022C278.532 95.0022 277.592 90.6483 277.023 90.4938C276.454 90.344 273.587 93.8778 273.865 94.6689Z" fill="#9FB7E5"/>
<path d="M271.518 153.034C271.518 153.034 266.111 153.248 264.307 153.551L264.537 159.591L271.857 159.151L271.518 153.034Z" fill="#B1C5EA"/>
<path d="M259.441 84.9423L247.234 99.0932L254.826 86.8384C255.122 86.6379 256.967 85.8964 259.441 84.9423Z" fill="#3A66B9"/>
<path d="M279.646 35.4183C279.615 35.6442 279.583 35.8519 279.533 36.062C279.312 36.062 279.103 36.0777 278.913 36.0777C279.134 35.8519 279.374 35.6285 279.646 35.4183Z" fill="#CCE9FF"/>
<path d="M279.646 35.4183C279.615 35.6442 279.583 35.8519 279.533 36.062C279.312 36.062 279.103 36.0777 278.913 36.0777C279.134 35.8519 279.374 35.6285 279.646 35.4183Z" fill="#CCE9FF"/>
<path d="M289.677 63.4816C289.66 63.5142 289.645 63.5299 289.645 63.5299C289.645 63.5299 289.995 59.914 289.628 57.6C290.553 56.5384 291.382 55.0915 291.685 53.5807C292.307 50.4623 286.837 51.187 286.311 54.1423C286.152 55.0275 286.025 55.9913 286.025 56.8428L282.93 57.1483C282.93 57.1483 288.353 47.4708 282.835 46.6689C278.162 45.9769 275.58 46.8138 272.995 46.5723L272.533 46.1713L271.527 45.2534L271.177 45.6411C270.412 44.3549 268.849 41.4624 268.721 38.9225C268.721 38.8428 268.704 38.7462 268.721 38.6665C268.689 38.2148 268.689 37.8126 268.689 37.4443C268.656 37.396 268.641 37.3477 268.625 37.2994C268.913 34.2136 272.564 31.7716 277.03 31.7716C277.715 31.7716 278.4 31.8356 279.039 31.9479C279.454 32.7668 279.693 33.6834 279.693 34.6629C279.693 34.9201 279.676 35.1786 279.645 35.4189C279.373 35.6291 279.134 35.8525 278.912 36.0771C279.103 36.0771 279.311 36.0614 279.533 36.0614C279.582 35.8525 279.613 35.6448 279.645 35.4177C280.602 34.6774 281.83 34.1001 283.248 33.7305C284.285 33.4576 285.433 33.3127 286.63 33.3127C291.653 33.3127 295.735 35.9491 295.735 39.1955V39.2124C296.373 40.1109 296.9 41.4938 297.075 43.6158C297.921 53.757 290.251 62.8391 289.677 63.4816Z" fill="#242D38"/>
<path d="M268.691 37.4437C268.691 37.812 268.691 38.2142 268.723 38.6659C268.628 38.3579 268.595 38.0379 268.595 37.7166C268.595 37.5729 268.595 37.4437 268.626 37.2988C268.643 37.3471 268.659 37.3954 268.691 37.4437ZM278.913 36.0765C279.135 35.8519 279.375 35.6285 279.647 35.4183C279.615 35.6442 279.583 35.8519 279.534 36.062C279.312 36.0608 279.104 36.0765 278.913 36.0765Z" fill="#242D38"/>
<path d="M283.25 33.7316C281.831 34.1011 280.603 34.6784 279.646 35.4188C279.679 35.1784 279.694 34.9212 279.694 34.6627C279.694 33.682 279.455 32.7666 279.04 31.9478C280.699 32.2364 282.15 32.8632 283.25 33.7316Z" fill="#242D38"/>
<path d="M184.792 66.2815C188.165 66.6862 190.69 68.5077 192.369 71.7449C194.067 75.02 194.398 78.0221 193.363 80.7465C192.328 83.4732 190.291 85.8521 187.256 87.8854L189.617 93.4001L182.783 97.0007L178.023 88.649C181.376 86.4039 183.558 84.3773 184.573 82.5747C185.587 80.7688 185.635 78.983 184.717 77.2139C183.956 75.7457 182.87 74.8684 181.461 74.5797C180.052 74.2921 178.374 74.6611 176.433 75.6833C174.491 76.7055 173.2 78.0945 172.563 79.8425C171.925 81.5926 172.058 83.5234 172.964 85.6347L164.099 86.424C163.023 83.1566 163.249 79.9941 164.778 76.9352C166.306 73.8763 169.238 71.2054 173.57 68.9223C177.678 66.7586 181.418 65.8802 184.792 66.2815ZM192.248 98.1957C193.515 98.5335 194.502 99.3796 195.205 100.736C195.908 102.093 196.036 103.392 195.587 104.635C195.137 105.877 194.166 106.892 192.673 107.679C191.178 108.467 189.807 108.686 188.557 108.34C187.306 107.992 186.33 107.142 185.627 105.785C184.925 104.429 184.789 103.135 185.217 101.901C185.647 100.668 186.611 99.6572 188.105 98.8691C189.597 98.0832 190.978 97.858 192.248 98.1957Z" fill="#F08156"/>
<path d="M377.416 60.7249C380.165 64.068 380.909 67.9686 379.645 72.4253C378.368 76.9345 376.07 79.9867 372.754 81.5819C369.437 83.1771 365.501 83.5695 360.947 82.7613L358.335 89.9158L348.925 87.2047L351.791 75.3337C356.822 76.2244 360.587 76.2835 363.085 75.5177C365.581 74.7518 367.176 73.1499 367.867 70.7131C368.44 68.6932 368.203 66.9285 367.156 65.4225C366.11 63.9142 364.249 62.7772 361.577 62.0069C358.902 61.2366 356.512 61.377 354.409 62.4249C352.304 63.4716 350.752 65.3656 349.753 68.1034L340.917 61.0181C342.76 57.0641 345.711 54.3563 349.77 52.8893C353.827 51.4245 358.839 51.5505 364.805 53.2694C370.46 54.897 374.663 57.384 377.416 60.7249ZM356.595 96.6445C357.467 98.0736 357.64 99.7223 357.111 101.587C356.582 103.452 355.572 104.759 354.081 105.508C352.589 106.255 350.814 106.333 348.758 105.741C346.702 105.147 345.25 104.14 344.402 102.719C343.553 101.299 343.393 99.6532 343.921 97.7882C344.45 95.9232 345.448 94.6134 346.913 93.8554C348.379 93.1018 350.139 93.0193 352.197 93.6123C354.254 94.2043 355.719 95.2165 356.595 96.6445Z" fill="#F08156"/>
<path d="M273.312 3.90255C274.525 5.37737 274.854 7.09743 274.297 9.06274C273.733 11.0526 272.719 12.3992 271.256 13.1026C269.792 13.8082 268.055 13.9799 266.046 13.6243L264.894 16.7791L260.743 15.5829L262.008 10.3458C264.228 10.7404 265.888 10.765 266.991 10.4272C268.091 10.0905 268.796 9.38379 269.1 8.30805C269.352 7.41625 269.248 6.63927 268.786 5.97376C268.324 5.31048 267.504 4.80773 266.326 4.46773C265.144 4.12773 264.092 4.19016 263.163 4.65166C262.234 5.11317 261.548 5.94924 261.11 7.15874L257.21 4.03186C258.024 2.28839 259.327 1.09337 261.116 0.446814C262.905 -0.199743 265.117 -0.145118 267.751 0.614028C270.245 1.33081 272.098 2.42662 273.312 3.90255ZM264.125 19.7476C264.512 20.3775 264.586 21.1054 264.353 21.9292C264.121 22.753 263.676 23.3282 263.017 23.6571C262.359 23.987 261.576 24.0227 260.669 23.7608C259.762 23.4988 259.121 23.0551 258.747 22.4264C258.372 21.801 258.302 21.0753 258.534 20.2515C258.768 19.4299 259.208 18.8503 259.855 18.517C260.502 18.1848 261.278 18.148 262.186 18.4099C263.094 18.673 263.74 19.1178 264.125 19.7476Z" fill="#F08156"/>
</svg>
