<svg width="288" height="318" viewBox="0 0 288 318" fill="none" xmlns="http://www.w3.org/2000/svg">
<rect x="39" y="37" width="249" height="281" fill="#D9D9D9"/>
<circle cx="39" cy="39" r="39" fill="#A0A0A0"/>
<path d="M35.5057 46V44.7216L40.3068 39.4659C40.8703 38.8504 41.3343 38.3153 41.6989 37.8608C42.0634 37.4015 42.3333 36.9706 42.5085 36.5682C42.6884 36.161 42.7784 35.7348 42.7784 35.2898C42.7784 34.7784 42.6553 34.3357 42.4091 33.9616C42.1676 33.5876 41.8362 33.2988 41.4148 33.0952C40.9934 32.8916 40.5199 32.7898 39.9943 32.7898C39.4356 32.7898 38.9479 32.9058 38.5312 33.1378C38.1193 33.3651 37.7997 33.6847 37.5724 34.0966C37.3499 34.5085 37.2386 34.9915 37.2386 35.5455H35.5625C35.5625 34.6932 35.759 33.9451 36.152 33.3011C36.545 32.6572 37.08 32.1553 37.7571 31.7955C38.4389 31.4356 39.2036 31.2557 40.0511 31.2557C40.9034 31.2557 41.6586 31.4356 42.3168 31.7955C42.9749 32.1553 43.491 32.6406 43.8651 33.2514C44.2391 33.8622 44.4261 34.5417 44.4261 35.2898C44.4261 35.8248 44.3291 36.348 44.1349 36.8594C43.9455 37.366 43.6141 37.9318 43.1406 38.5568C42.6719 39.1771 42.0208 39.9347 41.1875 40.8295L37.9205 44.3239V44.4375H44.6818V46H35.5057Z" fill="black"/>
</svg>
