<svg width="377" height="454" viewBox="0 0 377 454" fill="none" xmlns="http://www.w3.org/2000/svg">
<rect x="30.5" y="26.5006" width="337" height="427" rx="7.5" fill="#FAFAFA" stroke="#304AC1"/>
<circle cx="29" cy="29.0006" r="29" fill="#304AC1"/>
<path d="M25.328 33.2086C26.864 31.9286 28.088 30.8646 29 30.0166C29.912 29.1526 30.672 28.2566 31.28 27.3286C31.888 26.4006 32.192 25.4886 32.192 24.5926C32.192 23.7766 32 23.1366 31.616 22.6726C31.232 22.2086 30.64 21.9766 29.84 21.9766C29.04 21.9766 28.424 22.2486 27.992 22.7926C27.56 23.3206 27.336 24.0486 27.32 24.9766H24.056C24.12 23.0566 24.688 21.6006 25.76 20.6086C26.848 19.6166 28.224 19.1206 29.888 19.1206C31.712 19.1206 33.112 19.6086 34.088 20.5846C35.064 21.5446 35.552 22.8166 35.552 24.4006C35.552 25.6486 35.216 26.8406 34.544 27.9766C33.872 29.1126 33.104 30.1046 32.24 30.9526C31.376 31.7846 30.248 32.7926 28.856 33.9766H35.936V36.7606H24.08V34.2646L25.328 33.2086Z" fill="white"/>
<g clip-path="url(#clip0_117_1156)">
<path d="M288.43 327.461H263.179V327.278H288.43V327.461Z" fill="#D9D7D4"/>
<path d="M318.129 326.939H303.92V326.755H318.129V326.939Z" fill="#D9D7D4"/>
<path d="M191.553 327.185H172.702V327.369H191.553V327.185Z" fill="#D9D7D4"/>
<path d="M205.162 329.795H192.287V329.979H205.162V329.795Z" fill="#D9D7D4"/>
<path d="M116.186 325.517H77.2942V325.333H116.186V325.517Z" fill="#D9D7D4"/>
<path d="M217.966 193.106H328.579V98.0093H217.966V193.106Z" fill="#D9D7D4"/>
<path d="M220.425 193.106H331.037V98.0093H220.425V193.106Z" fill="#EBE9E8"/>
<path d="M224.837 188.643H326.625V102.472H224.837V188.643Z" fill="#F9F8F7"/>
<path d="M287.44 188.643H294.094V102.472H287.44V188.643Z" fill="#D9D7D4"/>
<path d="M252.452 188.643H259.106V102.472H252.452V188.643Z" fill="#D9D7D4"/>
<path d="M289.779 191.475H296.433V99.1544H289.779V191.475Z" fill="#EBE9E8"/>
<path d="M254.791 191.475H261.445V99.1544H254.791V191.475Z" fill="#EBE9E8"/>
<path d="M324.766 188.643V102.472H326.625V188.643H324.766Z" fill="#D9D7D4"/>
<path d="M140.171 173.114C140.171 173.114 126.711 149.912 145.384 131.441C145.384 131.441 150.258 134.618 150.183 138.888C150.109 143.159 144.965 144.239 146.069 147.803C147.175 151.367 152.032 154.864 148.845 157.81C145.656 160.756 149.358 163.379 149.143 166.988C148.927 170.598 140.171 173.114 140.171 173.114Z" fill="#D9D7D4"/>
<path d="M142.284 176.908C142.284 176.908 147.74 150.644 124.196 139.005C124.196 139.005 120.572 143.555 121.989 147.585C123.407 151.614 128.63 151.016 128.705 154.747C128.779 158.478 125.273 163.328 129.227 165.119C133.181 166.909 130.495 170.565 131.838 173.922C133.181 177.28 142.284 176.908 142.284 176.908Z" fill="#E0DDDB"/>
<path d="M130.297 170.238C130.297 170.238 130.533 192.907 139.593 192.907C148.653 192.907 148.89 170.238 148.89 170.238H130.297Z" fill="#EBE9E8"/>
<path d="M75.8331 184.378C75.8331 184.378 76.3381 192.907 95.6974 192.907C115.057 192.907 115.562 184.378 115.562 184.378H75.8331Z" fill="#E0DDDB"/>
<path d="M279.894 257.315H269.672C268.4 257.315 267.37 256.284 267.37 255.012V238.107C267.37 236.836 268.4 235.805 269.672 235.805H279.894C281.165 235.805 282.196 236.836 282.196 238.107V255.012C282.196 256.284 281.165 257.315 279.894 257.315Z" fill="#EBE9E8"/>
<path d="M306.989 257.315H300.111C299.256 257.315 298.562 256.621 298.562 255.766V244.39C298.562 243.534 299.256 242.84 300.111 242.84H306.989C307.845 242.84 308.538 243.534 308.538 244.39V255.766C308.538 256.621 307.845 257.315 306.989 257.315Z" fill="#E0DDDB"/>
<path d="M308.019 243.066H299.082C298.795 243.066 298.562 242.833 298.562 242.545V241.954C298.562 241.668 298.795 241.434 299.082 241.434H308.019C308.305 241.434 308.538 241.668 308.538 241.954V242.545C308.538 242.833 308.305 243.066 308.019 243.066Z" fill="#EBE9E8"/>
<path d="M243.723 245.347C243.723 245.347 244.089 257.315 258.103 257.315C272.117 257.315 272.483 245.347 272.483 245.347H243.723Z" fill="#E0DDDB"/>
<path d="M208.871 229.548H230.075V225.367H208.871V229.548Z" fill="#D9D7D4"/>
<path d="M230.075 229.548H335.5V225.367H230.075V229.548Z" fill="#EBE9E8"/>
<path d="M208.871 261.495H230.075V257.315H208.871V261.495Z" fill="#D9D7D4"/>
<path d="M335.5 261.495H230.075V257.315H335.5V261.495Z" fill="#EBE9E8"/>
<path d="M212.602 320.509H216.516V229.548H212.602V320.509Z" fill="#D9D7D4"/>
<path d="M230.075 320.509H233.989V229.548H230.075V320.509Z" fill="#EBE9E8"/>
<path d="M318.026 320.509H321.941V229.548H318.026V320.509Z" fill="#D9D7D4"/>
<path d="M335.5 320.509H331.586V229.548H335.5V320.509Z" fill="#EBE9E8"/>
<path d="M75.8331 314.998H55.7817V198.229H75.8331V314.998Z" fill="#E0DDDB"/>
<path d="M59.6321 320.509H158.516V314.998H59.6321V320.509Z" fill="#E0DDDB"/>
<path d="M75.8331 314.998H162.365V198.229H75.8331V314.998Z" fill="#EBE9E8"/>
<path d="M83.7167 270.874H154.483V242.354H83.7167V270.874Z" fill="#E0DDDB"/>
<path d="M83.7167 304.594H154.483V276.075H83.7167V304.594Z" fill="#E0DDDB"/>
<path d="M127.043 245.479H111.155C110.079 245.479 109.199 244.599 109.199 243.524C109.199 242.448 110.079 241.569 111.155 241.569H127.043C128.119 241.569 128.999 242.448 128.999 243.524C128.999 244.599 128.119 245.479 127.043 245.479Z" fill="#EBE9E8"/>
<path d="M83.7167 237.151H154.483V208.631H83.7167V237.151Z" fill="#E0DDDB"/>
<path d="M127.043 211.758H111.155C110.079 211.758 109.199 210.878 109.199 209.802C109.199 208.726 110.079 207.847 111.155 207.847H127.043C128.119 207.847 128.999 208.726 128.999 209.802C128.999 210.878 128.119 211.758 127.043 211.758Z" fill="#EBE9E8"/>
<path d="M127.043 279.2H111.155C110.079 279.2 109.199 278.321 109.199 277.245C109.199 276.17 110.079 275.289 111.155 275.289H127.043C128.119 275.289 128.999 276.17 128.999 277.245C128.999 278.321 128.119 279.2 127.043 279.2Z" fill="#EBE9E8"/>
<path d="M75.8331 198.229H165.037V192.907H75.8331V198.229Z" fill="#E0DDDB"/>
<path d="M52.9803 192.907H75.8335V198.229H52.9803V192.907Z" fill="#D9D7D4"/>
<path d="M65.7371 138.098H98.1813V102.472H65.7371V138.098Z" fill="#E0DDDB"/>
<path d="M68.1825 138.098H101.696V102.472H68.1825V138.098Z" fill="#EBE9E8"/>
<path d="M70.9902 135.292H98.8883V105.281H70.9902V135.292Z" fill="#F9F8F7"/>
<path d="M77.7528 128.017H92.126V112.554H77.7528V128.017Z" fill="#EBE9E8"/>
<path d="M107.785 118.382H132.391V91.9533H107.785V118.382Z" fill="#E0DDDB"/>
<path d="M110.138 118.382H134.998V91.9533H110.138V118.382Z" fill="#EBE9E8"/>
<path d="M112.22 116.299H132.915V94.0366H112.22V116.299Z" fill="#F9F8F7"/>
<path d="M122.568 99.539L116.908 109.342H128.228L122.568 99.539Z" fill="#EBE9E8"/>
<path d="M335.815 345.347C335.815 349.937 272.098 353.658 193.5 353.658C114.902 353.658 51.1857 349.937 51.1857 345.347C51.1857 340.756 114.902 337.035 193.5 337.035C272.098 337.035 335.815 340.756 335.815 345.347Z" fill="#C7DCFB"/>
<path d="M318.135 180.198H246.127C242.346 180.198 239.251 177.103 239.251 173.322V153.734C239.251 149.952 242.346 146.858 246.127 146.858H318.135C321.918 146.858 325.012 149.952 325.012 153.734V173.322C325.012 177.103 321.918 180.198 318.135 180.198Z" fill="#3A66B9"/>
<path d="M303.845 156.21H247.608C246.944 156.21 246.401 155.666 246.401 155.003V153.687C246.401 153.023 246.944 152.48 247.608 152.48H303.845C304.509 152.48 305.052 153.023 305.052 153.687V155.003C305.052 155.666 304.509 156.21 303.845 156.21Z" fill="#3A66B9"/>
<path d="M286.032 165.196H247.608C246.944 165.196 246.401 164.653 246.401 163.99V162.673C246.401 162.009 246.944 161.467 247.608 161.467H286.032C286.696 161.467 287.239 162.009 287.239 162.673V163.99C287.239 164.653 286.696 165.196 286.032 165.196Z" fill="#3A66B9"/>
<path d="M275.726 174.182H247.608C246.944 174.182 246.401 173.64 246.401 172.975V171.659C246.401 170.996 246.944 170.453 247.608 170.453H275.726C276.39 170.453 276.933 170.996 276.933 171.659V172.975C276.933 173.64 276.39 174.182 275.726 174.182Z" fill="#3A66B9"/>
<path d="M310.585 174.182H282.466C281.802 174.182 281.259 173.64 281.259 172.975V171.659C281.259 170.996 281.802 170.453 282.466 170.453H310.585C311.248 170.453 311.791 170.996 311.791 171.659V172.975C311.791 173.64 311.248 174.182 310.585 174.182Z" fill="#3A66B9"/>
<path d="M303.845 156.21H278.673C278.364 154.963 278.012 153.718 277.62 152.48H303.845C304.509 152.48 305.052 153.023 305.052 153.687V155.003C305.052 155.666 304.509 156.21 303.845 156.21Z" fill="#87A6DC"/>
<path d="M286.032 165.196H280.198C280.083 163.952 279.928 162.709 279.734 161.467H286.032C286.696 161.467 287.239 162.009 287.239 162.673V163.99C287.239 164.653 286.696 165.196 286.032 165.196Z" fill="#87A6DC"/>
<path d="M310.585 174.182H282.466C281.802 174.182 281.259 173.64 281.259 172.975V171.659C281.259 170.996 281.802 170.453 282.466 170.453H310.585C311.248 170.453 311.791 170.996 311.791 171.659V172.975C311.791 173.64 311.248 174.182 310.585 174.182Z" fill="#87A6DC"/>
<path d="M260.456 187.969H178.719C173.174 187.969 168.637 183.433 168.637 177.888V149.169C168.637 143.624 173.174 139.087 178.719 139.087H260.456C266 139.087 270.537 143.624 270.537 149.169V177.888C270.537 183.433 266 187.969 260.456 187.969Z" fill="#3A66B9"/>
<path d="M263.344 152.798H180.89C179.917 152.798 179.121 152.001 179.121 151.029V149.099C179.121 148.126 179.917 147.33 180.89 147.33H263.344C264.317 147.33 265.113 148.126 265.113 149.099V151.029C265.113 152.001 264.317 152.798 263.344 152.798Z" fill="#3A66B9"/>
<path d="M237.227 165.973H180.89C179.917 165.973 179.121 165.177 179.121 164.205V162.274C179.121 161.302 179.917 160.505 180.89 160.505H237.227C238.199 160.505 238.995 161.302 238.995 162.274V164.205C238.995 165.177 238.199 165.973 237.227 165.973Z" fill="#3A66B9"/>
<path d="M222.117 179.148H180.89C179.917 179.148 179.121 178.352 179.121 177.379V175.449C179.121 174.477 179.917 173.68 180.89 173.68H222.117C223.091 173.68 223.886 174.477 223.886 175.449V177.379C223.886 178.352 223.091 179.148 222.117 179.148Z" fill="#3A66B9"/>
<path d="M266.353 179.148H231.998C231.025 179.148 230.229 178.352 230.229 177.379V175.449C230.229 174.477 231.025 173.68 231.998 173.68H266.353C267.325 173.68 268.122 174.477 268.122 175.449V177.379C268.122 178.352 267.325 179.148 266.353 179.148Z" fill="#3A66B9"/>
<path d="M209.64 265.221H170.273C167.682 265.221 165.561 263.1 165.561 260.508V201.542C165.561 198.951 167.682 196.83 170.273 196.83H209.64C212.232 196.83 214.352 198.951 214.352 201.542V260.508C214.352 263.1 212.232 265.221 209.64 265.221Z" fill="#3A66B9"/>
<path d="M209.64 265.221H170.273C167.682 265.221 165.561 263.1 165.561 260.508V205.691C166.474 205.106 167.386 204.517 168.294 203.922C169.979 206.537 171.839 208.985 173.852 211.261H172.078C171.6 211.261 171.209 211.653 171.209 212.13V213.421C171.209 213.899 171.6 214.29 172.078 214.29H176.723C178.261 215.806 179.873 217.23 181.548 218.561H172.078C171.6 218.561 171.209 218.952 171.209 219.43V220.721C171.209 221.199 171.6 221.59 172.078 221.59H185.712C188.127 223.195 190.643 224.619 193.247 225.861H190.674C190.196 225.861 189.805 226.252 189.805 226.73V228.021C189.805 228.499 190.196 228.889 190.674 228.889H200.882C205.243 230.29 209.764 231.202 214.352 231.595V260.508C214.352 261.981 213.668 263.301 212.602 264.167C211.791 264.825 210.76 265.221 209.64 265.221Z" fill="#2F479C"/>
<path d="M207.834 206.991H172.078C171.6 206.991 171.209 206.599 171.209 206.122V204.831C171.209 204.353 171.6 203.962 172.078 203.962H207.834C208.313 203.962 208.704 204.353 208.704 204.831V206.122C208.704 206.599 208.313 206.991 207.834 206.991Z" fill="#F9F8F7"/>
<path d="M196.447 214.291H172.078C171.6 214.291 171.209 213.9 171.209 213.422V212.131C171.209 211.654 171.6 211.262 172.078 211.262H196.447C196.925 211.262 197.316 211.654 197.316 212.131V213.422C197.316 213.9 196.925 214.291 196.447 214.291Z" fill="#F9F8F7"/>
<path d="M207.834 221.591H172.078C171.6 221.591 171.209 221.199 171.209 220.722V219.43C171.209 218.952 171.6 218.561 172.078 218.561H207.834C208.313 218.561 208.704 218.952 208.704 219.43V220.722C208.704 221.199 208.313 221.591 207.834 221.591Z" fill="#F9F8F7"/>
<path d="M185.362 228.89H172.078C171.6 228.89 171.209 228.499 171.209 228.021V226.73C171.209 226.252 171.6 225.861 172.078 225.861H185.362C185.84 225.861 186.231 226.252 186.231 226.73V228.021C186.231 228.499 185.84 228.89 185.362 228.89Z" fill="#F9F8F7"/>
<path d="M203.958 228.89H190.674C190.196 228.89 189.805 228.499 189.805 228.021V226.73C189.805 226.252 190.196 225.861 190.674 225.861H203.958C204.436 225.861 204.827 226.252 204.827 226.73V228.021C204.827 228.499 204.436 228.89 203.958 228.89Z" fill="#F9F8F7"/>
<path d="M207.834 236.19H172.078C171.6 236.19 171.209 235.799 171.209 235.321V234.03C171.209 233.552 171.6 233.16 172.078 233.16H207.834C208.313 233.16 208.704 233.552 208.704 234.03V235.321C208.704 235.799 208.313 236.19 207.834 236.19Z" fill="#F9F8F7"/>
<path d="M207.834 243.489H172.078C171.6 243.489 171.209 243.098 171.209 242.62V241.33C171.209 240.851 171.6 240.46 172.078 240.46H207.834C208.313 240.46 208.704 240.851 208.704 241.33V242.62C208.704 243.098 208.313 243.489 207.834 243.489Z" fill="#F9F8F7"/>
<path d="M201.494 250.79H172.078C171.6 250.79 171.209 250.398 171.209 249.921V248.63C171.209 248.152 171.6 247.761 172.078 247.761H201.494C201.972 247.761 202.363 248.152 202.363 248.63V249.921C202.363 250.398 201.972 250.79 201.494 250.79Z" fill="#F9F8F7"/>
<path d="M185.797 258.09H172.078C171.6 258.09 171.209 257.699 171.209 257.22V255.93C171.209 255.452 171.6 255.061 172.078 255.061H185.797C186.275 255.061 186.666 255.452 186.666 255.93V257.22C186.666 257.699 186.275 258.09 185.797 258.09Z" fill="#F9F8F7"/>
<path d="M220.288 196.414H165.692L189.805 215.622L226.823 229.548V202.95C226.823 199.355 223.883 196.414 220.288 196.414Z" fill="#3A66B9"/>
<path d="M217.905 210.506H177.951C177.354 210.506 176.866 210.018 176.866 209.421V207.389C176.866 206.792 177.354 206.304 177.951 206.304H217.905C218.502 206.304 218.99 206.792 218.99 207.389V209.421C218.99 210.018 218.502 210.506 217.905 210.506Z" fill="#F9F8F7"/>
<path d="M237.371 248.407V210.009C237.371 207.078 239.769 204.679 242.7 204.679H309.386C312.317 204.679 314.716 207.078 314.716 210.009V248.407C314.716 251.339 312.317 253.736 309.386 253.736H242.7C239.769 253.736 237.371 251.339 237.371 248.407Z" fill="#3A66B9"/>
<path d="M249.547 236.23V197.832C249.547 194.9 251.945 192.502 254.876 192.502H321.563C324.494 192.502 326.891 194.9 326.891 197.832V236.23C326.891 239.162 324.494 241.559 321.563 241.559H254.876C251.945 241.559 249.547 239.162 249.547 236.23Z" fill="#3A66B9"/>
<path d="M321.563 241.559H271.88C272.025 239.669 272.176 237.932 272.316 236.33H287.621C288.622 236.33 289.442 235.512 289.442 234.51V216.395C289.442 215.393 288.622 214.575 287.621 214.575H278.497C278.965 214.052 279.421 213.506 279.866 212.936C280.782 211.684 281.667 210.325 282.222 208.587C282.494 207.721 282.682 206.736 282.622 205.644C282.589 205.101 282.485 204.536 282.302 203.985C282.21 203.71 282.1 203.439 281.971 203.177L281.698 202.644C280.354 200.023 278.831 197.491 277.091 195.114C276.738 194.626 276.381 194.141 276.016 193.661C276.172 193.276 276.322 192.89 276.47 192.502H321.563C324.494 192.502 326.891 194.9 326.891 197.832V225.366V229.547V236.23C326.891 239.162 324.494 241.559 321.563 241.559ZM293.589 223.078C293.589 224.384 294.657 225.453 295.964 225.453H317.751C319.057 225.453 320.126 224.384 320.126 223.078V199.444C320.126 198.139 319.057 197.07 317.751 197.07H295.964C294.657 197.07 293.589 198.139 293.589 199.444V223.078ZM269.287 215.596C269.229 215.526 269.119 215.486 268.993 215.486C268.967 215.486 268.942 215.487 268.915 215.491L268.887 215.495C268.451 212.909 268.097 210.544 267.874 207.948C269.944 205.243 271.776 202.379 273.355 199.392C274.732 201.243 276.025 203.158 277.231 205.127L277.472 205.519L277.566 205.681C277.621 205.795 277.664 205.926 277.693 206.086C277.757 206.404 277.75 206.842 277.647 207.336C277.439 208.326 276.947 209.478 276.313 210.579C275.695 211.701 274.944 212.81 274.128 213.884C273.957 214.114 273.782 214.345 273.604 214.575H270.921C270.206 214.575 269.584 214.993 269.287 215.596Z" fill="#87A6DC"/>
<path d="M293.589 223.079V199.444C293.589 198.139 294.658 197.07 295.964 197.07H317.751C319.057 197.07 320.126 198.139 320.126 199.444V223.079C320.126 224.384 319.057 225.453 317.751 225.453H295.964C294.658 225.453 293.589 224.384 293.589 223.079Z" fill="#3A66B9"/>
<path d="M317.751 225.453H295.964C294.658 225.453 293.589 224.384 293.589 223.079V199.444C293.589 198.139 294.658 197.07 295.964 197.07H317.751C319.057 197.07 320.126 198.139 320.126 199.444V223.079C320.126 224.384 319.057 225.453 317.751 225.453Z" fill="#B1C5EA"/>
<path d="M269.101 234.51V216.395C269.101 215.393 269.92 214.575 270.922 214.575H287.622C288.623 214.575 289.442 215.393 289.442 216.395V234.51C289.442 235.512 288.623 236.33 287.622 236.33H270.922C269.92 236.33 269.101 235.512 269.101 234.51Z" fill="#3A66B9"/>
<path d="M287.622 236.33H272.316C272.987 228.61 273.377 223.986 271.369 220.065C272.043 219.893 272.802 219.608 273.402 219.139L273.404 219.141C275.267 217.786 276.95 216.301 278.497 214.575H287.622C288.623 214.575 289.442 215.393 289.442 216.395V234.51C289.442 235.512 288.623 236.33 287.622 236.33ZM272.129 216.392L269.541 215.968L269.299 215.611C269.295 215.605 269.292 215.6 269.287 215.596C269.585 214.993 270.207 214.575 270.922 214.575H273.605C273.128 215.191 272.628 215.801 272.129 216.392Z" fill="#618BCF"/>
<path d="M89.2451 119.664V109.877C89.2451 106.898 91.682 104.462 94.6606 104.462H273.857C276.835 104.462 279.272 106.898 279.272 109.877V119.664C279.272 122.643 276.835 125.08 273.857 125.08H94.6606C91.682 125.08 89.2451 122.643 89.2451 119.664Z" fill="#3A66B9"/>
<path d="M273.857 125.08H259.775C248.621 115.268 234.216 109.875 219.439 109.875C210.378 109.875 201.179 111.904 192.504 116.185C187.583 118.615 183.133 121.621 179.2 125.08H176.467C180.97 120.863 186.112 117.294 191.692 114.54L191.367 113.882C185.488 116.784 180.089 120.581 175.4 125.08H94.6606C93.7467 125.08 92.8836 124.85 92.1261 124.446C90.4158 123.533 89.2451 121.729 89.2451 119.664V109.877C89.2451 106.898 91.682 104.462 94.6606 104.462H273.857C276.835 104.462 279.272 106.898 279.272 109.877V119.664C279.272 122.643 276.835 125.08 273.857 125.08ZM241.959 112.152C244.494 113.116 246.988 114.258 249.375 115.545L249.724 114.9C247.309 113.597 244.784 112.442 242.22 111.466L241.959 112.152Z" fill="#87A6DC"/>
<path d="M193.805 128.523H245.37V121.424H193.805V128.523Z" fill="#3A66B9"/>
<path d="M107.725 89.2028V79.4149C107.725 76.4371 110.162 74.0002 113.14 74.0002H292.336C295.315 74.0002 297.752 76.4371 297.752 79.4149V89.2028C297.752 92.1814 295.315 94.6176 292.336 94.6176H113.14C110.162 94.6176 107.725 92.1814 107.725 89.2028Z" fill="#3A66B9"/>
<path d="M105.683 182.418C105.04 183.857 104.324 185.465 103.699 187.018C103.068 188.588 102.435 190.159 101.87 191.743C100.713 194.9 99.7269 198.099 99.0875 201.236L98.8739 202.407L98.7991 202.851C98.7763 202.972 98.7741 203.138 98.7565 203.28C98.7227 203.902 98.7367 204.656 98.802 205.426C98.94 206.977 99.1881 208.634 99.5015 210.295C100.121 213.619 100.907 217.048 101.685 220.419L97.9197 221.907C96.1633 218.687 94.6806 215.418 93.446 211.927C92.839 210.18 92.2848 208.391 91.8943 206.449C91.7006 205.475 91.5251 204.468 91.4804 203.323C91.476 203.024 91.4598 202.748 91.4723 202.428C91.484 202.116 91.498 201.764 91.5244 201.555L91.6683 200.103C91.8958 198.185 92.2364 196.306 92.6761 194.486C93.0893 192.652 93.6185 190.87 94.18 189.109C94.7481 187.347 95.3742 185.617 96.0686 183.916C96.4128 183.063 96.7718 182.218 97.1432 181.375C97.5138 180.516 97.8911 179.722 98.3447 178.817L105.683 182.418Z" fill="#F3646C"/>
<path d="M101.538 219.431L104.402 222.225L98.1569 225.13C98.1569 225.13 96.6412 222.484 97.6871 220.091L101.538 219.431Z" fill="#F3646C"/>
<path d="M106.709 226.386L101.435 228.545L98.1572 225.13L104.402 222.225L106.709 226.386Z" fill="#F3646C"/>
<path d="M226.823 218.4V202.949C226.823 199.793 224.556 197.14 221.569 196.54L225.868 193.106H236.425C235.522 195.541 234.956 197.801 234.956 197.801L236.869 198.732C236.623 199.401 236.38 200.072 236.143 200.748C235.155 203.52 234.236 206.319 233.483 209.239C233.386 209.601 233.297 209.972 233.212 210.345L233.082 210.904L233.013 211.208C232.986 211.352 232.956 211.493 232.936 211.641C232.749 212.816 232.958 214.119 233.448 215.138C233.717 215.692 234.024 216.174 234.356 216.6C231.87 217.412 229.349 218.009 226.823 218.4Z" fill="#FDFDFD"/>
<path d="M236.425 193.106H225.868L231.455 188.643H238.589C237.765 189.805 237.021 191.494 236.425 193.106Z" fill="#F0EDED"/>
<path d="M238.588 188.643H231.455L232.297 187.969H239.132C238.948 188.165 238.766 188.392 238.588 188.643Z" fill="#F9F8F7"/>
<path d="M239.132 187.969H232.297L243.338 179.148H251.529C252.211 181.311 252.175 183.503 249.11 184.673C246.45 185.27 243.596 186.134 241.823 186.7C241.293 186.824 240.716 187.018 240.073 187.276C239.753 187.404 239.439 187.645 239.132 187.969ZM259.168 183.356C258.118 182.588 257.599 180.992 257.366 179.148H266.353C266.538 179.148 266.715 179.12 266.883 179.067C266.64 180.465 266.334 181.851 265.969 183.22C265.3 183.198 264.538 183.184 263.718 183.184C262.316 183.184 260.743 183.227 259.168 183.356ZM267.484 174.092C267.178 173.835 266.783 173.681 266.353 173.681H257.269C257.313 172.843 257.367 172.073 257.407 171.432L255.359 173.681H250.182L266.502 160.642C267.239 164.025 267.597 167.439 267.597 170.83C267.597 171.92 267.559 173.009 267.484 174.092Z" fill="#6E96D5"/>
<path d="M266.353 179.148H257.366C257.142 177.382 257.182 175.39 257.269 173.68H266.353C266.783 173.68 267.178 173.835 267.485 174.092C267.371 175.764 267.169 177.423 266.883 179.066C266.715 179.119 266.538 179.148 266.353 179.148ZM251.529 179.148H243.338L250.182 173.68H255.359L251.204 178.24C251.323 178.541 251.433 178.844 251.529 179.148Z" fill="#B0C3E8"/>
<path d="M219.526 218.96C212.461 218.96 205.505 217.398 199.161 214.444L204.089 210.506H217.905C218.502 210.506 218.99 210.018 218.99 209.421V207.39C218.99 206.793 218.502 206.305 217.905 206.305H209.349L221.569 196.541C224.556 197.141 226.823 199.794 226.823 202.95V218.4C224.391 218.776 221.953 218.96 219.526 218.96Z" fill="#6285BD"/>
<path d="M217.905 210.506H204.089L209.348 206.304H217.905C218.502 206.304 218.99 206.792 218.99 207.389V209.421C218.99 210.018 218.502 210.506 217.905 210.506Z" fill="#F9F8F7"/>
<path d="M183.992 196.414H178.742C177.883 195.043 177.087 193.617 176.356 192.136C176.068 191.553 175.793 190.967 175.531 190.378L178.547 187.968C178.604 187.969 178.662 187.969 178.719 187.969H187.974V193.233L183.992 196.414ZM188.157 193.086V187.969H194.561L188.157 193.086Z" fill="#FDFDFD"/>
<path d="M187.973 193.233V187.969H188.157V193.086L187.973 193.233Z" fill="#E4E2E0"/>
<path d="M252.452 139.088H239.722L248.243 132.278C249.706 133.368 251.112 134.543 252.452 135.804V139.088Z" fill="#F9F8F7"/>
<path d="M254.792 139.088H252.452V135.804C253.255 136.56 254.037 137.347 254.792 138.163V139.088Z" fill="#E4E2E0"/>
<path d="M255.624 139.088H254.791V138.163C255.073 138.467 255.35 138.775 255.624 139.088Z" fill="#F0EDED"/>
<path d="M194.561 187.969H178.719C178.662 187.969 178.604 187.969 178.547 187.968L189.585 179.148H205.601L194.561 187.969ZM212.443 173.681H196.428L206.074 165.973H222.09L212.443 173.681ZM228.933 160.505H212.917L222.563 152.798H238.579L228.933 160.505ZM245.421 147.331H229.405L239.722 139.087H252.452H254.791H255.625C255.64 139.105 255.656 139.123 255.672 139.14L245.421 147.331Z" fill="#6E96D5"/>
<path d="M238.578 152.798H222.563L229.405 147.33H245.421L238.578 152.798Z" fill="#B0C3E8"/>
<path d="M222.09 165.973H206.074L212.916 160.505H228.932L222.09 165.973Z" fill="#B0C3E8"/>
<path d="M205.601 179.148H189.585L196.428 173.68H212.443L205.601 179.148Z" fill="#B0C3E8"/>
<path d="M180.58 199.139C179.941 198.259 179.327 197.348 178.742 196.413H183.992L180.58 199.139Z" fill="#6285BD"/>
<path d="M213.35 139.088H196.99V128.524H217.966V135.399L213.35 139.088ZM196.807 139.088H188.157V134.335C190.719 132.14 193.55 130.186 196.63 128.524H196.807V139.088ZM187.974 139.088H183.347C184.772 137.464 186.316 135.928 187.974 134.493V139.088Z" fill="#FDFDFD"/>
<path d="M188.157 139.088H187.973V134.493C188.034 134.44 188.095 134.387 188.157 134.335V139.088Z" fill="#E4E2E0"/>
<path d="M196.807 139.088H196.99V128.524H196.807V139.088Z" fill="#E4E2E0"/>
<path d="M217.966 135.398V128.524H220.425V133.433L217.966 135.398Z" fill="#E4E2E0"/>
<path d="M220.425 133.433V128.523H224.837V129.908L220.425 133.433Z" fill="#F0EDED"/>
<path d="M224.837 129.908V128.523H226.57L224.837 129.908Z" fill="#F9F8F7"/>
<path d="M171.407 172.6C171.387 172.021 171.376 171.442 171.376 170.865C171.381 159.225 175.626 147.878 183.347 139.087H187.974H188.157H196.807H196.99H213.35L203.032 147.33H180.89C179.917 147.33 179.121 148.126 179.121 149.099V151.029C179.121 152.001 179.917 152.798 180.89 152.798H196.19L186.544 160.505H180.89C179.917 160.505 179.121 161.301 179.121 162.274V164.204C179.121 164.854 179.476 165.425 180.002 165.732L171.407 172.6Z" fill="#6E96D5"/>
<path d="M196.19 152.798H180.89C179.917 152.798 179.121 152.001 179.121 151.029V149.099C179.121 148.126 179.917 147.33 180.89 147.33H203.033L196.19 152.798Z" fill="#B0C3E8"/>
<path d="M180.003 165.732C179.476 165.425 179.121 164.854 179.121 164.204V162.274C179.121 161.301 179.917 160.505 180.89 160.505H186.544L180.003 165.732Z" fill="#B0C3E8"/>
<path d="M240.422 205.194C240.9 203.913 241.394 202.631 241.895 201.35C242.072 202.085 242.262 202.86 242.467 203.674C242.55 204.003 242.635 204.337 242.723 204.679H242.7C241.886 204.679 241.113 204.864 240.422 205.194Z" fill="#FDFDFD"/>
<path d="M239.006 214.812C238.441 214.253 238.032 213.682 237.918 213.248C237.835 212.936 237.849 212.742 237.916 212.487L238.165 211.672C238.263 211.344 238.365 211.015 238.478 210.683C239.081 208.859 239.735 207.027 240.422 205.194C241.113 204.863 241.886 204.678 242.7 204.678H242.723C243.022 205.844 243.35 207.09 243.709 208.416C243.749 208.565 243.789 208.716 243.83 208.867V208.867C244.089 209.817 244.363 210.807 244.655 211.844C243.408 212.607 242.116 213.321 240.779 213.98C240.192 214.27 239.599 214.549 239.006 214.812Z" fill="#6E96D5"/>
<path d="M226.57 128.523H196.63C197.146 128.246 197.666 127.976 198.195 127.716C205.04 124.337 212.301 122.736 219.449 122.736C223.638 122.736 227.787 123.285 231.795 124.348L226.57 128.523Z" fill="#B0C3E8"/>
<path d="M175.531 190.378C175.012 189.213 174.544 188.039 174.125 186.855C175.456 187.542 176.958 187.941 178.547 187.968L175.531 190.378ZM217.966 139.087H213.349L217.966 135.398V139.087Z" fill="#FBFAFA"/>
<path d="M220.425 139.088H217.966V135.399L220.425 133.434V139.088Z" fill="#EBE9E8"/>
<path d="M224.837 139.088H220.425V133.434L224.837 129.909V139.088Z" fill="#F2F0F0"/>
<path d="M239.722 139.088H224.837V129.909L226.57 128.524H242.349C244.395 129.627 246.366 130.881 248.243 132.278L239.722 139.088Z" fill="#F9F8F7"/>
<path d="M178.547 187.968C176.958 187.941 175.456 187.542 174.124 186.855C172.467 182.176 171.579 177.373 171.407 172.6L180.002 165.732C180.263 165.885 180.567 165.972 180.89 165.972H206.074L196.428 173.68H180.89C179.917 173.68 179.121 174.477 179.121 175.449V177.379C179.121 178.352 179.917 179.148 180.89 179.148H189.584L178.547 187.968ZM212.916 160.505H186.544L196.19 152.798H222.562L212.916 160.505ZM229.405 147.33H203.032L213.349 139.087H217.966H220.425H224.836H239.722L229.405 147.33Z" fill="#A1B8E4"/>
<path d="M222.562 152.798H196.19L203.032 147.33H229.405L222.562 152.798Z" fill="#CBD7F0"/>
<path d="M206.074 165.973H180.89C180.567 165.973 180.264 165.886 180.002 165.733L186.544 160.505H212.916L206.074 165.973Z" fill="#CBD7F0"/>
<path d="M189.585 179.148H180.89C179.917 179.148 179.121 178.352 179.121 177.379V175.449C179.121 174.477 179.917 173.68 180.89 173.68H196.428L189.585 179.148Z" fill="#CBD7F0"/>
<path d="M242.348 128.523H226.57L231.795 124.348C235.46 125.319 239.004 126.721 242.348 128.523Z" fill="#CBD7F0"/>
<path d="M221.569 196.54C221.154 196.457 220.726 196.413 220.288 196.413H196.99V187.969H217.966V193.106H220.425H225.868L221.569 196.54ZM196.807 196.413H188.157V193.085L194.561 187.969H196.807V196.413ZM187.974 196.413H183.992L187.974 193.232V196.413Z" fill="#FBFAFA"/>
<path d="M188.157 196.414H187.973V193.233L188.157 193.086V196.414Z" fill="#EBE9E8"/>
<path d="M196.807 196.414H196.99V187.969H196.807V196.414Z" fill="#EBE9E8"/>
<path d="M217.966 193.106H220.425V187.969H217.966V193.106Z" fill="#EBE9E8"/>
<path d="M225.868 193.106H220.425V187.969H224.837V188.643H231.454L225.868 193.106Z" fill="#F2F0F0"/>
<path d="M231.454 188.643H224.837V187.969H232.297L231.454 188.643Z" fill="#F9F8F7"/>
<path d="M232.297 187.969H194.561L205.601 179.148H222.116C223.09 179.148 223.885 178.352 223.885 177.379V175.45C223.885 174.477 223.09 173.681 222.116 173.681H212.443L222.09 165.973H237.227C238.199 165.973 238.995 165.177 238.995 164.205V162.274C238.995 161.302 238.199 160.505 237.227 160.505H228.932L238.579 152.798H263.344C263.582 152.798 263.81 152.751 264.018 152.664C265.091 155.284 265.916 157.954 266.501 160.642L250.182 173.681H231.998C231.025 173.681 230.229 174.477 230.229 175.45V177.379C230.229 178.352 231.025 179.148 231.998 179.148H243.338L232.297 187.969ZM261.446 147.331H245.421L255.671 139.14C257.84 141.619 259.78 144.354 261.446 147.331Z" fill="#A1B8E4"/>
<path d="M263.344 152.798H238.579L245.421 147.33H261.446C261.852 148.057 262.243 148.799 262.616 149.555C263.123 150.583 263.59 151.619 264.018 152.663C263.81 152.75 263.582 152.798 263.344 152.798Z" fill="#CBD7F0"/>
<path d="M237.226 165.973H222.09L228.932 160.505H237.226C238.199 160.505 238.995 161.302 238.995 162.274V164.205C238.995 165.177 238.199 165.973 237.226 165.973Z" fill="#CBD7F0"/>
<path d="M222.117 179.148H205.601L212.443 173.68H222.117C223.091 173.68 223.885 174.477 223.885 175.449V177.379C223.885 178.352 223.091 179.148 222.117 179.148Z" fill="#CBD7F0"/>
<path d="M243.338 179.148H231.998C231.025 179.148 230.229 178.352 230.229 177.379V175.449C230.229 174.477 231.025 173.68 231.998 173.68H250.181L243.338 179.148Z" fill="#CBD7F0"/>
<path d="M199.16 214.443C196.762 213.327 194.45 212.011 192.254 210.505H204.089L199.16 214.443ZM209.348 206.304H186.966C184.63 204.162 182.488 201.771 180.58 199.139L183.992 196.413H220.288C220.726 196.413 221.154 196.457 221.569 196.54L209.348 206.304Z" fill="#9CAECF"/>
<path d="M204.089 210.506H192.254C190.405 209.238 188.636 207.835 186.967 206.304H209.348L204.089 210.506Z" fill="#F9F8F7"/>
<path d="M249.375 115.545C246.988 114.259 244.494 113.116 241.959 112.152L242.22 111.466C244.784 112.442 247.309 113.597 249.724 114.9L249.375 115.545ZM168.931 133.552L168.339 133.117C174.288 125.034 182.251 118.382 191.367 113.882L191.692 114.54C182.68 118.988 174.81 125.563 168.931 133.552ZM160.02 150.686L159.324 150.45C160.536 146.878 162.061 143.406 163.859 140.134L164.502 140.488C162.725 143.723 161.217 147.154 160.02 150.686Z" fill="#3A66B9"/>
<path d="M160.02 150.686L159.324 150.45C160.536 146.878 162.061 143.406 163.859 140.134L164.502 140.488C162.725 143.723 161.217 147.154 160.02 150.686Z" fill="#3150AA"/>
<path d="M168.931 133.552L168.339 133.117C174.287 125.034 182.25 118.382 191.367 113.882L191.691 114.541C186.111 117.295 180.97 120.864 176.467 125.08C173.697 127.673 171.169 130.51 168.931 133.552Z" fill="#3150AA"/>
<path d="M249.375 115.545C246.988 114.259 244.494 113.117 241.959 112.152L242.22 111.467C244.784 112.442 247.309 113.597 249.724 114.9L249.375 115.545Z" fill="#3150AA"/>
<path d="M240.779 213.98C216.956 225.741 188.116 215.958 176.356 192.136C164.599 168.319 174.373 139.475 198.195 127.716C222.019 115.956 250.858 125.738 262.616 149.555C274.376 173.378 264.601 202.221 240.779 213.98ZM274.146 143.864C259.244 113.676 222.691 101.284 192.504 116.185C164.439 130.039 151.77 162.605 162.099 191.373C157.195 193.094 152.353 194.939 147.537 196.837C140.594 199.587 133.72 202.476 126.896 205.469C120.087 208.489 113.304 211.563 106.591 214.778C103.217 216.353 99.8907 218.021 96.5385 219.637C94.8415 220.404 93.2531 221.39 91.8864 222.826C91.1987 223.534 90.5689 224.361 89.9979 225.306C89.4341 226.265 88.9159 227.317 88.5614 228.701C87.4325 233.089 89.6441 237.766 93.9409 239.599C95.2548 240.159 96.4049 240.387 97.5096 240.523C98.6077 240.644 99.6463 240.647 100.627 240.532C102.598 240.32 104.346 239.658 105.987 238.778C109.309 237.1 112.656 235.473 115.957 233.753C122.592 230.379 129.157 226.864 135.696 223.295C142.221 219.698 148.695 215.999 155.101 212.16C159.536 209.491 163.946 206.769 168.294 203.922C184.853 229.618 218.408 239.364 246.471 225.511C276.658 210.61 289.05 174.056 274.146 143.864Z" fill="#3A66B9"/>
<path d="M99.1493 240.616C98.6186 240.616 98.0717 240.585 97.5095 240.523C96.4048 240.387 95.2547 240.159 93.9408 239.599C90.3904 238.085 88.264 234.63 88.2692 230.999C88.2699 230.235 88.3653 229.464 88.5613 228.701C88.9158 227.317 89.434 226.266 89.9977 225.306C90.5688 224.361 91.1986 223.534 91.8863 222.826C93.253 221.39 94.8414 220.405 96.5384 219.638C98.3998 218.74 100.254 217.826 102.112 216.921C101.997 218.985 101.921 220.521 101.96 221.392C106.188 221.392 122.111 221.392 130.801 221.392C131.77 214.219 132.383 208.118 132.734 202.941C137.638 200.844 142.57 198.805 147.537 196.837C152.353 194.939 157.195 193.094 162.099 191.373C159.688 184.659 158.53 177.738 158.528 170.896C158.523 148.423 170.99 126.806 192.504 116.185C201.178 111.904 210.377 109.875 219.439 109.875C241.91 109.875 263.526 122.351 274.146 143.864C278.432 152.547 280.46 161.757 280.458 170.825C280.457 173.976 280.21 177.11 279.728 180.198C279.282 183.059 278.634 185.882 277.79 188.643C277.272 190.341 276.68 192.015 276.016 193.661C275.711 193.26 275.4 192.862 275.082 192.469L275.964 191.793C275.964 191.793 271.601 183.639 268.736 183.365C268.696 183.361 268.656 183.358 268.617 183.355C268.29 183.33 267.316 183.262 265.969 183.219C267.041 179.199 267.595 175.033 267.596 170.83C267.598 164.747 266.441 158.583 264.017 152.664C263.589 151.619 263.123 150.584 262.615 149.555C262.243 148.799 261.852 148.058 261.445 147.331C258.054 141.268 253.518 136.204 248.243 132.278C246.365 130.88 244.395 129.626 242.348 128.523C239.003 126.721 235.46 125.319 231.795 124.348C227.787 123.285 223.638 122.736 219.449 122.736C212.301 122.736 205.04 124.337 198.195 127.716C197.666 127.976 197.146 128.246 196.63 128.523C193.55 130.185 190.719 132.14 188.157 134.334C188.095 134.386 188.034 134.439 187.974 134.492C177.338 143.699 171.381 157.077 171.376 170.866C171.374 178.021 172.974 185.286 176.356 192.136C184.737 209.114 201.793 218.96 219.526 218.96C224.474 218.96 229.476 218.193 234.356 216.6C235.266 217.766 236.367 218.511 237.399 219.143C240.311 220.772 243.206 221.568 246.271 222.039L246.6 220.686C246.62 220.772 246.712 220.835 246.833 220.857C246.685 221.841 246.437 223.509 246.125 225.68C243.255 227.075 240.33 228.224 237.371 229.136C236.906 229.279 236.441 229.416 235.974 229.547C235.314 229.734 234.652 229.908 233.989 230.071C232.687 230.391 231.384 230.666 230.075 230.897C226.571 231.516 223.049 231.819 219.548 231.818C217.809 231.818 216.076 231.744 214.352 231.596C209.764 231.203 205.242 230.29 200.882 228.89C190.609 225.592 181.212 219.583 173.851 211.261C171.839 208.985 169.979 206.537 168.294 203.923C167.386 204.517 166.474 205.107 165.561 205.692C162.102 207.905 158.609 210.049 155.101 212.16C148.695 215.999 142.221 219.699 135.696 223.295C134.374 224.017 133.052 224.735 131.728 225.452C131.158 222.907 130.801 221.392 130.801 221.392H120.57C120.57 221.392 108.677 221.392 101.96 221.392C101.96 226.759 102.743 233.086 103.625 239.838C102.678 240.175 101.684 240.419 100.627 240.532C100.148 240.588 99.6557 240.616 99.1493 240.616ZM246.211 219.033C243.916 218.06 241.593 216.917 239.819 215.523C239.526 215.296 239.251 215.055 239.006 214.812C239.599 214.549 240.192 214.271 240.779 213.981C242.116 213.321 243.408 212.607 244.654 211.844C245.223 213.864 245.855 216.051 246.558 218.417L246.484 218.427C246.285 218.452 246.136 218.57 246.136 218.694C246.136 218.706 246.137 218.717 246.14 218.729L246.211 219.033ZM267.874 207.948C267.706 206 267.612 203.921 267.612 201.521C267.612 199.974 267.651 198.292 267.734 196.426C268.317 197 268.719 197.353 268.719 197.353L268.72 197.351L268.837 197.262L270.59 195.917C271.287 196.74 271.978 197.574 272.632 198.436C272.875 198.753 273.117 199.072 273.355 199.392C271.776 202.379 269.944 205.243 267.874 207.948Z" fill="#3150AA"/>
<path d="M125.988 156.203C125.988 156.638 126.218 156.99 126.502 156.991C126.786 156.991 127.017 156.639 127.017 156.204C127.018 155.769 126.788 155.416 126.504 155.416C126.219 155.415 125.988 155.768 125.988 156.203Z" fill="#242D38"/>
<path d="M126.178 156.991C126.178 156.991 127.165 159.501 128.253 160.713C127.483 161.43 126.175 161.101 126.175 161.101L126.178 156.991Z" fill="#EF344D"/>
<path d="M124.449 153.792C124.37 153.792 124.291 153.756 124.241 153.686C124.159 153.571 124.185 153.411 124.3 153.329C125.446 152.504 126.551 152.918 126.598 152.936C126.729 152.987 126.795 153.135 126.743 153.267C126.693 153.397 126.545 153.463 126.414 153.412C126.371 153.397 125.51 153.088 124.598 153.745L124.449 153.792Z" fill="#242D38"/>
<path d="M111.142 159.482C111.916 163.427 112.687 170.655 109.927 173.288C109.927 173.288 111.006 177.289 118.336 177.289C126.396 177.289 122.188 173.288 122.188 173.288C117.789 172.237 117.902 168.974 118.669 165.909L111.142 159.482Z" fill="#F3646C"/>
<path d="M106.633 175.351C107.504 173.992 106.034 170.703 106.034 170.703C106.034 170.703 119.018 167.435 124.322 172.446C125.423 173.485 124.201 175.01 124.201 175.01L106.633 175.351Z" fill="#3A66B9"/>
<path d="M124.778 173.606C123.948 173.48 123.074 173.369 122.189 173.288C120.76 173.157 118.925 173.108 117.004 173.108C114.566 173.108 111.989 173.188 109.928 173.287C108.9 173.337 107.86 173.423 106.863 173.527C106.683 172.154 106.034 170.702 106.034 170.702C106.034 170.702 110.194 169.655 114.766 169.655C118.272 169.655 122.021 170.271 124.322 172.445C124.664 172.768 124.783 173.138 124.783 173.494C124.782 173.532 124.781 173.569 124.778 173.606Z" fill="#375FB5"/>
<path d="M83.461 323.631C83.9983 324.248 84.8534 324.941 85.2233 324.853C85.2586 324.845 85.3672 324.819 85.4113 324.583C85.4303 324.483 85.4061 324.39 85.3379 324.301C85.0465 323.918 84.0636 323.713 83.461 323.631ZM85.1602 325.115C84.4761 325.115 83.3843 323.973 83.0623 323.546L83.0526 323.408L83.1748 323.342C83.251 323.349 85.0509 323.504 85.5412 324.146C85.6535 324.293 85.6946 324.457 85.6623 324.63C85.6014 324.96 85.4215 325.068 85.2813 325.102L85.1602 325.115Z" fill="#3A66B9"/>
<path d="M83.4481 323.372C84.141 323.399 85.2427 323.144 85.4159 322.825C85.4314 322.796 85.4688 322.728 85.3528 322.607C85.264 322.514 85.1532 322.469 85.013 322.469H85.0122C84.5278 322.469 83.8342 323.014 83.4481 323.372ZM83.5376 323.627C83.3843 323.627 83.2481 323.616 83.1406 323.596L83.0428 323.509L83.0724 323.382C83.1182 323.334 84.2034 322.213 85.0122 322.213H85.013C85.2236 322.214 85.4005 322.287 85.5378 322.431C85.7506 322.654 85.6934 322.85 85.6398 322.948C85.3976 323.393 84.2724 323.627 83.5376 323.627Z" fill="#3A66B9"/>
<path d="M132.355 341.431C133.358 341.573 134.722 341.564 134.974 341.217C135.006 341.171 135.039 341.093 134.948 340.934C134.899 340.846 134.816 340.787 134.698 340.756C134.147 340.604 133.014 341.093 132.355 341.431ZM133.596 341.772C132.952 341.772 132.287 341.689 131.943 341.621L131.841 341.516L131.904 341.385C131.983 341.338 133.865 340.262 134.765 340.509C134.949 340.559 135.086 340.659 135.17 340.808C135.321 341.071 135.26 341.257 135.181 341.366C134.957 341.677 134.289 341.772 133.596 341.772Z" fill="#3A66B9"/>
<path d="M133.283 339.438C133.122 339.438 132.976 339.492 132.84 339.604C132.389 339.973 132.197 340.842 132.128 341.266C132.792 340.867 133.669 339.951 133.609 339.585C133.605 339.555 133.59 339.465 133.361 339.441L133.283 339.438ZM131.968 341.623L131.893 341.599L131.841 341.483C131.847 341.422 131.992 339.97 132.678 339.406C132.887 339.234 133.126 339.16 133.386 339.188C133.737 339.223 133.838 339.401 133.862 339.543C133.96 340.153 132.671 341.32 132.02 341.613L131.968 341.623Z" fill="#3A66B9"/>
<path d="M126.039 341.495H131.431L131.968 329.008H126.575L126.039 341.495Z" fill="#F3646C"/>
<path d="M77.9939 320.06L82.504 323.015L92.4568 314.608L87.9463 311.652L77.9939 320.06Z" fill="#F3646C"/>
<path d="M83.2484 322.731L78.5628 318.892C78.3924 318.752 78.1476 318.749 77.9741 318.886L74.1126 321.919C73.7121 322.232 73.716 322.844 74.1158 323.16C75.7744 324.472 76.6478 325.028 78.7087 326.716C79.9763 327.755 83.1288 330.922 84.879 332.356C86.5914 333.76 88.2774 332.247 87.6888 331.503C85.0515 328.167 83.9865 325.311 83.7156 323.543C83.6664 323.224 83.4984 322.935 83.2484 322.731Z" fill="#242D38"/>
<path d="M131.395 340.871H125.507C125.286 340.871 125.096 341.024 125.048 341.239L123.983 346.032C123.872 346.529 124.249 347.001 124.758 346.991C126.882 346.955 129.952 346.83 132.622 346.83C135.744 346.83 138.44 347.001 142.101 347.001C144.314 347.001 144.929 344.763 144.002 344.56C139.784 343.638 136.34 343.539 132.694 341.291C132.298 341.047 131.861 340.871 131.395 340.871Z" fill="#242D38"/>
<path d="M99.2992 174.899C94.6221 177.138 91.9885 191.853 91.9885 191.853L103.418 196.414C103.418 196.414 105.99 190.323 107.459 183.823C108.999 177.014 104.081 172.61 99.2992 174.899Z" fill="#242D38"/>
<path d="M105.361 183.199C102.535 186.062 101.244 191.67 100.678 195.318L103.416 196.411C103.416 196.411 105.897 190.547 107.38 184.191C107.138 182.634 106.536 182.01 105.361 183.199Z" fill="#272D49"/>
<path d="M130.482 174.785C130.482 174.785 136.221 181.267 130.801 221.392C122.111 221.392 106.188 221.392 101.96 221.392C101.762 216.964 104.543 195.367 100.273 174.507C100.273 174.507 105.217 173.514 109.927 173.288C113.613 173.11 118.948 172.993 122.188 173.288C126.459 173.677 130.482 174.785 130.482 174.785Z" fill="#242D38"/>
<path d="M133.114 190.357L128.255 181.982C127.315 186.569 126.916 189.406 127.114 193.928C127.245 196.805 129.884 207.459 132.24 209.015C132.981 201.183 133.194 195.084 133.114 190.357Z" fill="#272D49"/>
<path d="M133.787 180.513C134.505 184.081 135.263 187.733 136.043 191.321C136.821 194.917 137.64 198.498 138.587 201.972C138.833 202.827 139.06 203.705 139.33 204.532L139.526 205.162L139.624 205.477L139.59 205.439C139.534 205.375 139.476 205.368 139.52 205.434C139.578 205.581 140.039 205.899 140.638 206.128C141.245 206.363 141.988 206.57 142.775 206.727C145.96 207.334 149.711 207.421 153.271 207.411L153.969 211.399C152.983 211.713 152.063 211.944 151.098 212.167C150.141 212.393 149.175 212.588 148.194 212.736C146.231 213.039 144.224 213.233 142.081 213.146C141.007 213.101 139.895 212.999 138.704 212.707C137.519 212.401 136.207 211.986 134.834 210.91C134.163 210.374 133.497 209.631 133.022 208.728C132.901 208.511 132.797 208.259 132.706 208.048L132.57 207.7L132.299 207.006C131.923 206.075 131.615 205.158 131.278 204.233C130.035 200.543 129.006 196.861 128.091 193.162C127.191 189.451 126.401 185.772 125.745 181.978L133.787 180.513Z" fill="#F3646C"/>
<path d="M123.276 178.717C121.757 183.643 127.917 198.327 127.917 198.327L140.185 195.242C140.185 195.242 139.714 187.613 136.92 181.558C132.704 172.423 125.099 172.804 123.276 178.717Z" fill="#242D38"/>
<path d="M153.196 207.414L159.302 207.264L156.366 213.615C156.366 213.615 153.882 213.945 151.84 210.59L149.688 208.027L152.163 207.53C152.503 207.461 152.849 207.423 153.196 207.414Z" fill="#F3646C"/>
<path d="M163.157 208.445L159.66 213.708L156.365 213.614L159.302 207.264L163.157 208.445Z" fill="#F3646C"/>
<path d="M131.967 329.011L131.691 335.448H126.296L126.572 329.011H131.967Z" fill="#E04C58"/>
<path d="M87.9429 311.653L92.4548 314.611L87.3226 318.943L82.8107 315.986L87.9429 311.653Z" fill="#E04C58"/>
<path d="M111.482 155.268C111.806 160.61 111.724 163.753 114.419 166.497C118.473 170.625 125.069 168.184 126.348 162.853C127.499 158.055 126.777 150.125 121.55 147.996C116.401 145.896 111.159 149.927 111.482 155.268Z" fill="#F3646C"/>
<path d="M105.2 154.336C106.528 159.206 109.655 164.816 113.697 165.172C118.721 165.614 120.988 160.425 121.649 155.062C124.66 153.001 123.078 150.737 126.098 150.449C129.97 150.079 128.735 142.991 123.63 141.85C123.63 141.85 125.339 145.043 121.752 143.433C118.165 141.822 114.658 141.131 110.788 141.531C110.788 141.531 115.362 143.818 110.888 144.838C106.414 145.859 105.074 148.622 107.134 150.288C107.134 150.288 104.325 151.13 105.2 154.336Z" fill="#242D38"/>
<path d="M118.589 156.161C118.673 157.56 119.323 158.876 120.105 159.737C121.281 161.031 122.507 160.226 122.715 158.647C122.902 157.228 122.516 154.843 121.079 154.13C119.662 153.426 118.494 154.561 118.589 156.161Z" fill="#F3646C"/>
<path d="M120.57 221.392C120.57 221.392 125.827 259.451 121.685 274.698C115.127 298.848 90.0338 319.23 90.0338 319.23L81.528 313.655C81.528 313.655 102.894 296.443 105.509 276.231C107.859 258.072 101.96 236.122 101.96 221.392C108.677 221.392 120.57 221.392 120.57 221.392Z" fill="#3A66B9"/>
<path d="M92.7511 316.867L84.2294 311.283C90.0617 305.895 103.472 291.972 105.509 276.231C105.899 273.216 106.062 270.097 106.062 266.924C106.062 257.948 104.762 248.54 103.625 239.838C102.743 233.086 101.96 226.759 101.96 221.392C108.677 221.392 120.57 221.392 120.57 221.392H111.842C111.842 221.392 115.476 232.839 118.606 246.021C119.011 253.279 119.307 261.563 119.307 269.353C119.307 273.98 119.203 278.432 118.955 282.393C119.175 281.889 119.388 281.383 119.593 280.875C115.962 289.868 110.144 298.09 104.627 304.596C100.968 308.912 97.4399 312.471 94.7696 314.999C94.0246 315.704 93.3471 316.328 92.7511 316.867Z" fill="#375FB5"/>
<path d="M120.983 277.058C120.986 277.049 120.989 277.039 120.992 277.029C120.989 277.04 120.986 277.048 120.983 277.058Z" fill="#375FB5"/>
<path d="M120.999 277.008C121.075 276.772 121.15 276.535 121.222 276.298C121.15 276.535 121.076 276.772 120.999 277.008Z" fill="#375FB5"/>
<path d="M121.235 276.255C121.236 276.253 121.237 276.25 121.238 276.248C121.237 276.25 121.236 276.254 121.235 276.255Z" fill="#375FB5"/>
<path d="M122.166 272.624C122.396 271.455 122.585 270.194 122.737 268.856C122.737 268.858 122.737 268.857 122.737 268.858C122.658 269.551 122.569 270.224 122.47 270.873C122.378 271.477 122.276 272.062 122.166 272.624Z" fill="#375FB5"/>
<path d="M122.742 243.161C120.269 240.357 118.14 238.742 118.14 238.742C119.035 251.095 119.769 269.394 118.955 282.393C120.048 279.89 120.973 277.314 121.685 274.701C123.704 267.258 123.491 254.391 122.742 243.161Z" fill="#3A66B9"/>
<path d="M118.955 282.393C119.203 278.432 119.307 273.98 119.307 269.353C119.307 261.563 119.011 253.279 118.605 246.021C120.423 253.682 122.071 261.93 122.737 268.857C122.489 271.031 122.145 273.006 121.685 274.701C121.47 275.49 121.235 276.277 120.983 277.059C120.75 277.777 120.503 278.491 120.241 279.201C119.844 280.276 119.414 281.341 118.955 282.393Z" fill="#3150AA"/>
<path d="M93.4633 317.334L90.1705 319.503L80.8767 313.412L83.7737 310.984L93.4633 317.334Z" fill="#3A66B9"/>
<path d="M90.1705 319.503L88.1939 318.207L83.682 315.251L80.8767 313.412L83.7737 310.984L93.4633 317.334L90.1705 319.503Z" fill="#3150AA"/>
<path d="M130.801 221.391C130.801 221.391 138.923 255.816 139.495 272.261C140.136 290.702 133.7 334.201 133.7 334.201H124.566C124.566 334.201 123.441 290.363 123.034 273.566C122.592 255.253 111.842 221.391 111.842 221.391H130.801Z" fill="#3A66B9"/>
<path d="M124.482 330.938C124.214 320.468 123.374 287.592 123.034 273.567C122.998 272.089 122.896 270.511 122.737 268.857C122.071 261.93 120.424 253.682 118.605 246.021C115.476 232.839 111.842 221.392 111.842 221.392H130.801C130.801 221.392 138.923 255.817 139.495 272.261C139.525 273.135 139.54 274.065 139.54 275.043C139.54 275.381 139.538 275.726 139.535 276.076C139.459 283.923 138.544 294.563 137.46 304.595C137.071 308.193 136.661 311.714 136.26 314.998C136.025 316.927 135.792 318.773 135.57 320.509C135.562 320.569 135.554 320.632 135.545 320.692C135.021 324.774 134.549 328.216 134.214 330.606L124.482 330.938Z" fill="#375FB5"/>
<path d="M135.458 330.563L134.943 334.355H123.831L123.531 330.971L135.458 330.563Z" fill="#3A66B9"/>
<path d="M134.943 334.355H123.831L123.531 330.971L135.458 330.563L134.943 334.355Z" fill="#3150AA"/>
<path d="M271.267 188.306C271.894 188.893 272.38 189.393 272.899 189.954C273.403 190.503 273.897 191.057 274.377 191.62C275.337 192.745 276.229 193.92 277.092 195.113C278.831 197.491 280.354 200.023 281.698 202.643L281.971 203.177C282.1 203.438 282.211 203.709 282.302 203.985C282.485 204.536 282.589 205.101 282.622 205.644C282.682 206.736 282.495 207.721 282.222 208.587C281.667 210.325 280.782 211.683 279.866 212.936C277.953 215.39 275.831 217.376 273.403 219.141L271.572 217.042C272.437 216.042 273.331 214.962 274.128 213.883C274.945 212.809 275.695 211.701 276.313 210.579C276.948 209.478 277.44 208.325 277.647 207.335C277.75 206.842 277.757 206.404 277.693 206.086C277.664 205.926 277.621 205.795 277.566 205.681L277.473 205.519L277.231 205.127C275.816 202.817 274.283 200.58 272.633 198.435C271.814 197.358 270.941 196.324 270.066 195.301C269.631 194.788 269.185 194.287 268.736 193.794C268.292 193.32 267.805 192.795 267.415 192.403L271.267 188.306Z" fill="#F3646C"/>
<path d="M272.304 216.422L266.822 215.522L269.687 220.326C269.687 220.326 273.217 220.205 274.226 218.152L272.304 216.422Z" fill="#F3646C"/>
<path d="M262.767 217.745L265.383 221.636L269.687 220.325L266.822 215.521L262.767 217.745Z" fill="#F3646C"/>
<path d="M271.314 340.572L271.148 340.601C271.106 340.62 271.056 340.656 271.04 340.766C271.012 340.97 271.055 341.121 271.173 341.229C271.451 341.483 272.171 341.516 273.129 341.326C272.54 340.969 271.737 340.572 271.314 340.572ZM272.047 341.709C271.623 341.709 271.232 341.636 270.998 341.422C270.814 341.254 270.741 341.021 270.782 340.73C270.813 340.51 270.94 340.409 271.041 340.364C271.681 340.078 273.352 341.153 273.54 341.276L273.597 341.408L273.499 341.512C273.11 341.604 272.555 341.709 272.047 341.709Z" fill="#3A66B9"/>
<path d="M272.533 339.285L272.474 339.289C272.307 339.309 272.271 339.383 272.26 339.445C272.183 339.822 272.807 340.713 273.331 341.131C273.3 340.604 273.177 339.714 272.82 339.399C272.735 339.323 272.64 339.285 272.533 339.285ZM273.469 341.515L273.404 341.498C272.879 341.2 271.879 340.013 272.003 339.393C272.027 339.275 272.116 339.07 272.442 339.03C272.652 339 272.834 339.063 272.994 339.204C273.591 339.733 273.599 341.317 273.599 341.384L273.534 341.497L273.469 341.515Z" fill="#3A66B9"/>
<path d="M246.045 340.571C245.944 340.571 245.861 340.585 245.802 340.618C245.748 340.647 245.721 340.691 245.715 340.759C245.699 340.935 245.749 341.071 245.866 341.177C246.198 341.476 247.105 341.529 248.322 341.326C247.568 340.965 246.566 340.571 246.045 340.571ZM247.025 341.709C246.478 341.709 245.974 341.624 245.691 341.371C245.511 341.209 245.433 340.995 245.455 340.735C245.47 340.581 245.546 340.46 245.676 340.39C246.357 340.015 248.543 341.139 248.791 341.269L248.86 341.404L248.755 341.512C248.289 341.605 247.631 341.709 247.025 341.709Z" fill="#3A66B9"/>
<path d="M247.42 339.285L247.342 339.29C247.104 339.313 247.089 339.409 247.084 339.439C247.023 339.814 247.903 340.747 248.571 341.152C248.507 340.721 248.324 339.833 247.87 339.455C247.734 339.341 247.586 339.285 247.42 339.285ZM248.731 341.515L248.677 341.503C248.021 341.207 246.725 340.02 246.826 339.397C246.851 339.25 246.954 339.066 247.315 339.03C247.583 339.004 247.826 339.078 248.038 339.255C248.728 339.831 248.855 341.312 248.861 341.374L248.806 341.492L248.731 341.515Z" fill="#3A66B9"/>
<path d="M257.407 171.431C257.196 174.751 256.62 181.493 259.167 183.356C259.167 183.356 258.712 186.755 252.698 187.542C246.086 188.407 249.109 184.673 249.109 184.673C252.605 183.338 252.162 180.673 251.204 178.241L257.407 171.431Z" fill="#F3646C"/>
<path d="M243.737 165.568C243.665 165.568 243.593 165.538 243.541 165.478C242.777 164.602 241.825 164.726 241.816 164.726C241.656 164.748 241.541 164.647 241.521 164.505C241.501 164.362 241.601 164.231 241.743 164.21C241.795 164.205 242.985 164.05 243.934 165.136C244.029 165.244 244.017 165.409 243.909 165.504L243.737 165.568Z" fill="#242D38"/>
<path d="M242.592 168.82C242.592 168.82 242.093 170.811 241.391 171.832C242.043 172.298 242.998 171.921 242.998 171.921L242.592 168.82Z" fill="#EF344D"/>
<path d="M242.887 168.012C242.944 168.452 242.758 168.839 242.471 168.876C242.183 168.914 241.903 168.588 241.846 168.148C241.788 167.708 241.975 167.321 242.263 167.283C242.55 167.246 242.829 167.572 242.887 168.012Z" fill="#242D38"/>
<path d="M242.393 167.291L241.296 167.125C241.296 167.125 241.946 167.879 242.393 167.291Z" fill="#242D38"/>
<path d="M254.779 341.384H249.279L248.911 328.646H254.412L254.779 341.384Z" fill="#F3646C"/>
<path d="M279.77 341.384H274.27L272.502 328.646H278.002L279.77 341.384Z" fill="#F3646C"/>
<path d="M273.929 340.748H280.108C280.334 340.748 280.516 340.904 280.547 341.124L281.252 346.013C281.325 346.52 280.889 347 280.37 346.991C278.215 346.954 277.177 346.828 274.46 346.828C272.788 346.828 270.345 347.001 268.036 347.001C265.779 347.001 265.605 344.718 266.566 344.512C270.877 343.584 271.557 342.306 273.009 341.086C273.272 340.866 273.6 340.748 273.929 340.748Z" fill="#242D38"/>
<path d="M249.09 340.748H255.27C255.494 340.748 255.677 340.904 255.709 341.124L256.412 346.013C256.486 346.52 256.05 347 255.531 346.991C253.376 346.954 252.338 346.828 249.621 346.828C247.949 346.828 244.491 347.001 242.182 347.001C239.924 347.001 239.751 344.718 240.711 344.512C245.021 343.584 246.719 342.306 248.17 341.086C248.432 340.866 248.761 340.748 249.09 340.748Z" fill="#242D38"/>
<path d="M248.912 328.65L249.1 335.216H254.603L254.415 328.65H248.912Z" fill="#E04C58"/>
<path d="M278.004 328.65H272.501L273.415 335.216H278.918L278.004 328.65Z" fill="#E04C58"/>
<path d="M257.48 164.568C257.855 170.013 258.131 172.311 255.764 175.441C252.205 180.149 245.435 179.419 243.44 174.194C241.644 169.492 241.332 161.376 246.34 158.534C251.273 155.734 257.105 159.122 257.48 164.568Z" fill="#F3646C"/>
<path d="M260.652 169.623C263.71 171.327 265.973 167.125 265.973 167.125C265.973 167.125 260.499 167.719 260.988 164.46C261.637 160.138 258.541 154.882 250.773 155.555C250.343 155.592 249.928 155.646 249.525 155.713C248.019 155.084 245.98 155.15 244.695 156.825C242.523 157.008 239.525 159.639 241.537 163.109C241.537 163.109 241.713 162.557 242.187 162.032C242.352 164.063 244.134 167.293 246.35 167.504C246.827 170.289 244.979 173.512 245.635 176.414C246.583 180.605 253.648 181.581 253.648 181.581C252.874 179.551 254.063 178.35 254.063 178.35C258.864 180.542 262.028 178.401 262.028 178.401C258.756 177.177 259.744 175.006 259.744 175.006C264.129 176.678 265.973 172.743 265.973 172.743C263.639 172.865 261.667 171.56 260.652 169.623Z" fill="#242D38"/>
<path d="M248.267 168.342C248.303 169.473 247.812 170.515 247.165 171.182C246.191 172.187 245.002 171.485 244.684 170.199C244.398 169.04 244.56 167.122 245.821 166.598C247.063 166.083 248.226 167.048 248.267 168.342Z" fill="#F3646C"/>
<path d="M252.836 219.087C252.836 219.087 254.234 255.315 257.546 276.591C260.221 293.776 272.087 333.945 272.087 333.945H279.588C279.588 333.945 273.406 295.151 272.048 278.154C268.612 235.144 277.526 225.912 269.137 216.955L252.836 219.087Z" fill="#242D38"/>
<path d="M259.105 230.543C259.105 230.543 255.714 229.956 253.732 236.415C254.481 248.65 255.721 264.887 257.549 276.586C257.952 279.193 258.569 282.334 259.325 285.776C257.894 265.107 259.105 230.543 259.105 230.543Z" fill="#1F2033"/>
<path d="M246.986 219.853C246.986 219.853 240.804 259.934 241.164 276.707C241.539 294.154 247.933 333.945 247.933 333.945H255.37C255.37 333.945 254.193 295.174 254.851 278.039C255.568 259.358 263.206 217.731 263.206 217.731L246.986 219.853Z" fill="#242D38"/>
<path d="M280.675 334.291H270.705L269.927 330.946L280.606 331.022L280.675 334.291Z" fill="#3A66B9"/>
<path d="M280.675 334.291H270.705L269.927 330.946L280.606 331.022L280.675 334.291Z" fill="#3459B0"/>
<path d="M268.736 183.364C271.602 183.638 275.964 191.792 275.964 191.792L268.72 197.352C268.72 197.352 262.722 192.089 263.436 189.132C264.179 186.053 265.983 183.102 268.736 183.364Z" fill="#3A66B9"/>
<path d="M268.719 197.352C268.719 197.352 268.317 196.999 267.734 196.425C267.734 196.425 267.734 196.424 267.734 196.423C268.315 196.995 268.716 197.348 268.72 197.351L268.719 197.352ZM268.837 197.262L269.256 196.94L267.98 192.159C268.159 189.576 268.408 186.673 268.735 183.364C268.735 183.364 268.694 183.361 268.617 183.355C268.656 183.358 268.696 183.361 268.735 183.364C271.601 183.638 275.964 191.792 275.964 191.792L275.082 192.469L270.59 195.917L268.837 197.262Z" fill="#375FB5"/>
<path d="M266.57 186.87C266.57 186.87 265.417 186.539 264.324 186.621C263.942 187.398 263.648 188.258 263.435 189.13C262.723 192.088 268.72 197.351 268.72 197.351L269.256 196.94L266.57 186.87Z" fill="#3A66B9"/>
<path d="M268.72 197.351C268.72 197.351 268.318 196.998 267.734 196.423C267.793 195.101 267.874 193.686 267.98 192.159L269.256 196.94L268.72 197.351Z" fill="#3150AA"/>
<path d="M244.527 194.7C242.435 199.997 240.231 205.374 238.478 210.683C238.365 211.016 238.263 211.345 238.165 211.673L237.916 212.488C237.849 212.743 237.835 212.937 237.918 213.249C238.081 213.871 238.851 214.775 239.819 215.523C241.778 217.064 244.407 218.296 246.929 219.333L246.271 222.04C243.206 221.569 240.312 220.773 237.399 219.143C235.991 218.28 234.452 217.207 233.448 215.139C232.958 214.12 232.749 212.817 232.936 211.642C232.955 211.494 232.986 211.353 233.013 211.209L233.082 210.905L233.212 210.346C233.297 209.973 233.386 209.602 233.482 209.24C234.236 206.32 235.155 203.521 236.142 200.749C237.122 197.97 238.171 195.253 239.338 192.532L244.527 194.7Z" fill="#F3646C"/>
<path d="M240.073 187.276C240.073 187.276 237.595 188.531 246.986 219.852C255.776 218.702 264.86 217.514 269.137 216.954C267.586 207.988 266.848 202.43 268.736 183.365C268.736 183.365 263.963 182.963 259.168 183.356C255.417 183.665 252.347 183.945 249.11 184.673C244.841 185.632 240.073 187.276 240.073 187.276Z" fill="#3A66B9"/>
<path d="M246.558 218.417C245.495 214.838 244.594 211.671 243.83 208.867L243.988 202.198L244.421 202.408C244.421 202.408 247.481 194.714 247.478 190.677C247.477 189.775 247.323 189.056 246.948 188.646C245.629 187.202 244.524 186.533 243.126 186.533C242.72 186.533 242.29 186.59 241.823 186.7C243.595 186.134 246.449 185.27 249.109 184.673C252.347 183.944 255.416 183.664 259.167 183.356C260.742 183.227 262.315 183.183 263.718 183.183C266.584 183.183 268.736 183.365 268.736 183.365C268.408 186.673 268.159 189.576 267.98 192.159C267.875 193.686 267.793 195.101 267.734 196.423C267.734 196.424 267.734 196.425 267.734 196.425C267.651 198.292 267.612 199.974 267.612 201.521C267.613 207.12 268.124 210.969 268.887 215.495L246.558 218.417Z" fill="#375FB5"/>
<path d="M243.709 208.416C243.244 206.702 242.832 205.123 242.467 203.675C242.833 205.124 243.245 206.7 243.709 208.416Z" fill="#375FB5"/>
<path d="M269.299 215.611L270.556 217.462C270.654 217.606 270.492 217.787 270.236 217.82L247.006 220.859C246.807 220.886 246.629 220.809 246.6 220.685L246.14 218.729C246.109 218.594 246.266 218.454 246.484 218.426L268.915 215.491C269.081 215.47 269.235 215.517 269.299 215.611Z" fill="#3A66B9"/>
<path d="M246.929 220.865C246.763 220.865 246.626 220.793 246.6 220.686L246.212 219.033L246.14 218.729C246.138 218.717 246.136 218.706 246.136 218.694C246.136 218.57 246.285 218.452 246.485 218.426L268.916 215.491C268.942 215.487 268.968 215.486 268.994 215.486C269.128 215.486 269.245 215.532 269.299 215.611L270.556 217.463C270.576 217.491 270.585 217.521 270.586 217.551C270.586 217.672 270.442 217.794 270.236 217.82L247.007 220.859C246.98 220.863 246.955 220.865 246.929 220.865Z" fill="#3459B0"/>
<path d="M266.614 218.513L267.215 218.434C267.335 218.419 267.417 218.345 267.399 218.271L266.781 215.731C266.763 215.657 266.65 215.61 266.53 215.625L265.93 215.703C265.81 215.72 265.726 215.793 265.745 215.867L266.364 218.406C266.382 218.48 266.494 218.529 266.614 218.513Z" fill="#242D38"/>
<path d="M252.052 220.418L252.653 220.339C252.773 220.324 252.856 220.25 252.838 220.176L252.219 217.637C252.201 217.563 252.088 217.514 251.968 217.53L251.368 217.609C251.248 217.624 251.165 217.698 251.183 217.772L251.802 220.311C251.82 220.385 251.932 220.434 252.052 220.418Z" fill="#242D38"/>
<path d="M241.108 197.902C241.717 200.736 242.598 204.325 243.831 208.868L244.102 197.352L241.108 197.902Z" fill="#3A66B9"/>
<path d="M243.83 208.868C243.028 205.911 242.375 203.36 241.848 201.157L243.988 202.198L243.83 208.867V208.868Z" fill="#3150AA"/>
<path d="M240.073 187.276C237.318 188.381 234.956 197.802 234.956 197.802L244.421 202.409C244.421 202.409 249.002 190.892 246.949 188.646C244.811 186.309 243.241 186.005 240.073 187.276Z" fill="#3A66B9"/>
<path d="M244.421 202.409L243.988 202.198L241.849 201.157L234.956 197.802C234.956 197.802 237.318 188.381 240.073 187.276C241.284 186.79 242.261 186.534 243.127 186.534C244.524 186.534 245.629 187.203 246.949 188.646C247.324 189.057 247.477 189.776 247.478 190.677C247.481 194.714 244.421 202.409 244.421 202.409Z" fill="#375FB5"/>
<path d="M256.637 334.291H246.667L245.889 330.946L256.99 331.022L256.637 334.291Z" fill="#3A66B9"/>
<path d="M256.637 334.291H246.667L245.889 330.946L256.99 331.022L256.637 334.291Z" fill="#3459B0"/>
<path d="M247.083 218.394L246.283 218.064C245.42 217.71 244.5 218.431 244.64 219.354L245.219 223.179C245.342 223.993 246.18 224.508 246.951 224.223C247.216 224.125 247.492 223.982 247.756 223.775C248.306 223.344 248.581 222.649 248.548 221.951L248.473 220.367C248.432 219.495 247.89 218.725 247.083 218.394Z" fill="#F3646C"/>
</g>
<defs>
<clipPath id="clip0_117_1156">
<rect width="367" height="279.658" fill="white" transform="translate(10 74)"/>
</clipPath>
</defs>
</svg>
