<svg width="283" height="318" viewBox="0 0 283 318" fill="none" xmlns="http://www.w3.org/2000/svg">
<rect x="34" y="37" width="249" height="281" fill="#D9D9D9"/>
<circle cx="39" cy="39" r="39" fill="#A0A0A0"/>
<path d="M40.4205 46.1989C39.483 46.1989 38.6473 46.0379 37.9134 45.7159C37.1842 45.3939 36.6042 44.9465 36.1733 44.3736C35.7472 43.7959 35.5152 43.1259 35.4773 42.3636H37.267C37.3049 42.8324 37.4659 43.2372 37.75 43.5781C38.0341 43.9143 38.4058 44.1747 38.8651 44.3594C39.3243 44.544 39.8333 44.6364 40.392 44.6364C41.017 44.6364 41.571 44.5275 42.054 44.3097C42.5369 44.0919 42.9157 43.7888 43.1903 43.4006C43.465 43.0123 43.6023 42.5625 43.6023 42.0511C43.6023 41.5161 43.4697 41.045 43.2045 40.6378C42.9394 40.2259 42.5511 39.9039 42.0398 39.6719C41.5284 39.4399 40.9034 39.3239 40.1648 39.3239H39V37.7614H40.1648C40.7424 37.7614 41.2491 37.6572 41.6847 37.4489C42.125 37.2405 42.4683 36.947 42.7145 36.5682C42.9654 36.1894 43.0909 35.7443 43.0909 35.233C43.0909 34.7405 42.982 34.312 42.7642 33.9474C42.5464 33.5829 42.2386 33.2988 41.8409 33.0952C41.4479 32.8916 40.9839 32.7898 40.4489 32.7898C39.947 32.7898 39.4735 32.8821 39.0284 33.0668C38.5881 33.2467 38.2282 33.5095 37.9489 33.8551C37.6695 34.196 37.518 34.608 37.4943 35.0909H35.7898C35.8182 34.3286 36.0478 33.661 36.4787 33.0881C36.9096 32.5104 37.473 32.0606 38.169 31.7386C38.8698 31.4167 39.6392 31.2557 40.4773 31.2557C41.3769 31.2557 42.1487 31.438 42.7926 31.8026C43.4366 32.1624 43.9313 32.6383 44.277 33.2301C44.6226 33.822 44.7955 34.4612 44.7955 35.1477C44.7955 35.9669 44.58 36.6652 44.1491 37.2429C43.723 37.8205 43.143 38.2206 42.4091 38.4432V38.5568C43.3277 38.7083 44.045 39.099 44.5611 39.7287C45.0772 40.3537 45.3352 41.1278 45.3352 42.0511C45.3352 42.8419 45.1198 43.5521 44.6889 44.1818C44.2628 44.8068 43.6804 45.2992 42.9418 45.6591C42.2031 46.0189 41.3627 46.1989 40.4205 46.1989Z" fill="black"/>
</svg>
