<svg width="468" height="308" viewBox="0 0 468 308" fill="none" xmlns="http://www.w3.org/2000/svg">
<rect x="225.239" y="34.032" width="242.761" height="199.654" rx="22.6879" fill="#618BCF"/>
<rect x="182.132" width="269.986" height="222.342" rx="22.6879" fill="#B1C5EA"/>
<path fill-rule="evenodd" clip-rule="evenodd" d="M429.43 0H204.82C192.29 0 182.132 10.1577 182.132 22.6879V28.3599H452.118V22.6879C452.118 10.1577 441.961 0 429.43 0Z" fill="#618BCF"/>
<circle cx="204.82" cy="13.6128" r="4.53759" fill="#242D38"/>
<circle cx="222.97" cy="13.6128" r="4.53759" fill="#242D38"/>
<circle cx="241.121" cy="13.6128" r="4.53759" fill="#242D38"/>
<rect x="259.271" y="9.0752" width="174.697" height="9.07517" rx="4.53759" fill="#B1C5EA"/>
<line x1="200.282" y1="43.1069" x2="277.421" y2="43.1069" stroke="#618BCF" stroke-width="4.53759" stroke-linecap="round"/>
<line x1="291.034" y1="43.1069" x2="327.335" y2="43.1069" stroke="#618BCF" stroke-width="4.53759" stroke-linecap="round"/>
<line x1="340.948" y1="43.1069" x2="388.592" y2="43.1069" stroke="#618BCF" stroke-width="4.53759" stroke-linecap="round"/>
<line x1="200.282" y1="104.364" x2="277.421" y2="104.364" stroke="#618BCF" stroke-width="4.53759" stroke-linecap="round"/>
<line x1="291.034" y1="104.364" x2="327.335" y2="104.364" stroke="#618BCF" stroke-width="4.53759" stroke-linecap="round"/>
<line x1="340.948" y1="104.364" x2="388.592" y2="104.364" stroke="#618BCF" stroke-width="4.53759" stroke-linecap="round"/>
<line x1="200.282" y1="74.8701" x2="277.421" y2="74.8701" stroke="#618BCF" stroke-width="4.53759" stroke-linecap="round"/>
<line x1="291.034" y1="74.8701" x2="327.335" y2="74.8701" stroke="#618BCF" stroke-width="4.53759" stroke-linecap="round"/>
<line x1="340.948" y1="74.8701" x2="388.592" y2="74.8701" stroke="#618BCF" stroke-width="4.53759" stroke-linecap="round"/>
<line x1="354.56" y1="58.9885" x2="431.699" y2="58.9885" stroke="#618BCF" stroke-width="4.53759" stroke-linecap="round"/>
<line x1="200.282" y1="58.9885" x2="245.658" y2="58.9885" stroke="#618BCF" stroke-width="4.53759" stroke-linecap="round"/>
<line x1="263.809" y1="58.9885" x2="311.453" y2="58.9885" stroke="#618BCF" stroke-width="4.53759" stroke-linecap="round"/>
<line x1="325.066" y1="58.9885" x2="343.216" y2="58.9885" stroke="#618BCF" stroke-width="4.53759" stroke-linecap="round"/>
<line x1="354.56" y1="88.4829" x2="406.743" y2="88.4829" stroke="#618BCF" stroke-width="4.53759" stroke-linecap="round"/>
<line x1="200.282" y1="88.4829" x2="245.658" y2="88.4829" stroke="#618BCF" stroke-width="4.53759" stroke-linecap="round"/>
<line x1="263.809" y1="88.4829" x2="311.453" y2="88.4829" stroke="#618BCF" stroke-width="4.53759" stroke-linecap="round"/>
<line x1="325.066" y1="88.4829" x2="343.216" y2="88.4829" stroke="#618BCF" stroke-width="4.53759" stroke-linecap="round"/>
<line x1="399.936" y1="74.8701" x2="418.086" y2="74.8701" stroke="#618BCF" stroke-width="4.53759" stroke-linecap="round"/>
<line x1="200.282" y1="136.127" x2="274.539" y2="136.127" stroke="#618BCF" stroke-width="4.53759" stroke-linecap="round"/>
<line x1="287.831" y1="136.127" x2="322.69" y2="136.127" stroke="#618BCF" stroke-width="4.53759" stroke-linecap="round"/>
<line x1="335.983" y1="136.127" x2="381.786" y2="136.127" stroke="#618BCF" stroke-width="4.53759" stroke-linecap="round"/>
<line x1="354.56" y1="120.246" x2="384.055" y2="120.246" stroke="#618BCF" stroke-width="4.53759" stroke-linecap="round"/>
<line x1="200.282" y1="120.246" x2="245.658" y2="120.246" stroke="#618BCF" stroke-width="4.53759" stroke-linecap="round"/>
<line x1="263.809" y1="120.246" x2="311.453" y2="120.246" stroke="#618BCF" stroke-width="4.53759" stroke-linecap="round"/>
<line x1="325.066" y1="120.246" x2="343.216" y2="120.246" stroke="#618BCF" stroke-width="4.53759" stroke-linecap="round"/>
<line x1="354.56" y1="149.74" x2="431.699" y2="149.74" stroke="#618BCF" stroke-width="4.53759" stroke-linecap="round"/>
<line x1="200.282" y1="149.74" x2="245.658" y2="149.74" stroke="#618BCF" stroke-width="4.53759" stroke-linecap="round"/>
<line x1="263.809" y1="149.74" x2="311.453" y2="149.74" stroke="#618BCF" stroke-width="4.53759" stroke-linecap="round"/>
<line x1="325.066" y1="149.74" x2="343.216" y2="149.74" stroke="#618BCF" stroke-width="4.53759" stroke-linecap="round"/>
<line x1="200.282" y1="181.503" x2="302.769" y2="181.503" stroke="#618BCF" stroke-width="4.53759" stroke-linecap="round"/>
<line x1="319.198" y1="181.503" x2="368.173" y2="181.503" stroke="#618BCF" stroke-width="4.53759" stroke-linecap="round"/>
<line x1="200.282" y1="165.622" x2="245.658" y2="165.622" stroke="#618BCF" stroke-width="4.53759" stroke-linecap="round"/>
<line x1="263.809" y1="165.622" x2="311.453" y2="165.622" stroke="#618BCF" stroke-width="4.53759" stroke-linecap="round"/>
<line x1="325.066" y1="165.622" x2="343.216" y2="165.622" stroke="#618BCF" stroke-width="4.53759" stroke-linecap="round"/>
<path d="M376.114 246.164L387.458 115.708L422.624 129.321L389.727 247.298C387.911 242.761 379.895 244.652 376.114 246.164Z" fill="#242D38"/>
<path d="M390.861 124.784C391.995 139.909 391.768 182.184 381.786 230.283L390.861 124.784Z" fill="#1F2033"/>
<circle cx="379.517" cy="267.717" r="11.344" fill="#242D38"/>
<path d="M113.02 43.8464C117.756 54.5101 114.935 67.1545 106.677 78.2727C104.012 81.8618 100.78 85.2918 97.0523 88.4448C92.0239 92.6985 86.0943 96.4479 79.4384 99.4036C52.5655 111.337 24.0309 105.811 15.7046 87.0613C7.37837 68.3114 22.4134 43.4376 49.2864 31.5041C76.1593 19.5707 104.694 25.0965 113.02 43.8464Z" fill="#242D38"/>
<path d="M97.0523 88.4448L113.02 95.2886L106.677 78.2727C104.012 81.8618 100.78 85.2918 97.0523 88.4448Z" fill="#242D38"/>
<circle cx="43.7356" cy="74.8701" r="6.80638" fill="#080A0C"/>
<circle cx="64.1548" cy="65.7949" r="6.80638" fill="#080A0C"/>
<circle cx="84.574" cy="56.7197" r="6.80638" fill="#080A0C"/>
<path d="M12.5592 231.417L20.5 297.212L144.697 307.422L142.36 297.212L137.686 276.793L123.143 213.267L12.5592 231.417Z" fill="#242D38"/>
<path d="M170.788 269.986L137.686 276.793L142.36 297.212L170.788 269.986Z" fill="#242D38"/>
<path d="M43.2857 235.293C45.4612 235.293 47.3698 235.718 49.0113 236.568C50.6727 237.419 51.9483 238.635 52.8383 240.217C53.7481 241.78 54.203 243.599 54.203 245.676C54.203 247.753 53.7481 249.572 52.8383 251.135C51.9483 252.677 50.6727 253.874 49.0113 254.724C47.3698 255.575 45.4612 256 43.2857 256H36.047V235.293H43.2857ZM43.1373 252.47C45.3129 252.47 46.994 251.876 48.1807 250.69C49.3673 249.503 49.9607 247.832 49.9607 245.676C49.9607 243.52 49.3673 241.839 48.1807 240.633C46.994 239.406 45.3129 238.793 43.1373 238.793H40.2003V252.47H43.1373ZM64.61 256.267C63.0278 256.267 61.6038 255.921 60.338 255.229C59.0722 254.517 58.0734 253.518 57.3416 252.232C56.6296 250.947 56.2736 249.463 56.2736 247.782C56.2736 246.101 56.6395 244.618 57.3713 243.332C58.1229 242.047 59.1414 241.058 60.427 240.366C61.7125 239.654 63.1464 239.298 64.7286 239.298C66.3109 239.298 67.7448 239.654 69.0303 240.366C70.3159 241.058 71.3245 242.047 72.0563 243.332C72.8079 244.618 73.1836 246.101 73.1836 247.782C73.1836 249.463 72.798 250.947 72.0266 252.232C71.2751 253.518 70.2466 254.517 68.9413 255.229C67.6558 255.921 66.212 256.267 64.61 256.267ZM64.61 252.648C65.3615 252.648 66.0636 252.47 66.7163 252.114C67.3888 251.738 67.9228 251.184 68.3183 250.452C68.7139 249.721 68.9116 248.831 68.9116 247.782C68.9116 246.22 68.4963 245.023 67.6656 244.193C66.8548 243.342 65.856 242.917 64.6693 242.917C63.4826 242.917 62.4839 243.342 61.673 244.193C60.8819 245.023 60.4863 246.22 60.4863 247.782C60.4863 249.345 60.872 250.551 61.6433 251.402C62.4344 252.232 63.4233 252.648 64.61 252.648ZM85.3379 239.327C87.2959 239.327 88.8782 239.95 90.0846 241.196C91.291 242.423 91.8943 244.143 91.8943 246.358V256H87.7409V246.922C87.7409 245.617 87.4146 244.618 86.7619 243.926C86.1093 243.214 85.2193 242.858 84.0919 242.858C82.9448 242.858 82.035 243.214 81.3626 243.926C80.7099 244.618 80.3836 245.617 80.3836 246.922V256H76.2303V239.565H80.3836V241.612C80.9374 240.9 81.6395 240.346 82.4899 239.95C83.3602 239.535 84.3095 239.327 85.3379 239.327ZM96.6745 235.293H101.036L97.8315 242.769H94.9835L96.6745 235.293ZM108.849 242.976V250.927C108.849 251.481 108.978 251.886 109.235 252.143C109.512 252.381 109.967 252.499 110.6 252.499H112.528V256H109.917C106.417 256 104.666 254.299 104.666 250.897V242.976H102.708V239.565H104.666V235.5H108.849V239.565H112.528V242.976H108.849ZM43.1967 286.208C41.7529 286.208 40.4476 285.96 39.2807 285.466C38.1336 284.972 37.2238 284.26 36.5513 283.33C35.8789 282.4 35.5328 281.303 35.513 280.037H39.963C40.0223 280.887 40.319 281.56 40.853 282.054C41.4068 282.549 42.1583 282.796 43.1077 282.796C44.0768 282.796 44.8382 282.569 45.392 282.114C45.9458 281.639 46.2227 281.026 46.2227 280.274C46.2227 279.661 46.0348 279.157 45.659 278.761C45.2832 278.366 44.8086 278.059 44.235 277.842C43.6812 277.604 42.9099 277.347 41.921 277.07C40.5761 276.675 39.4784 276.289 38.628 275.913C37.7973 275.518 37.0754 274.934 36.4623 274.163C35.869 273.372 35.5723 272.324 35.5723 271.018C35.5723 269.792 35.8789 268.724 36.492 267.814C37.1051 266.905 37.9654 266.212 39.073 265.738C40.1806 265.243 41.4463 264.996 42.8703 264.996C45.0063 264.996 46.7369 265.52 48.062 266.568C49.4069 267.597 50.1486 269.041 50.287 270.9H45.7183C45.6788 270.188 45.3722 269.604 44.7987 269.149C44.2449 268.675 43.5032 268.437 42.5737 268.437C41.7628 268.437 41.1101 268.645 40.6157 269.06C40.141 269.476 39.9037 270.079 39.9037 270.87C39.9037 271.424 40.0817 271.889 40.4377 272.264C40.8134 272.62 41.2683 272.917 41.8023 273.154C42.3561 273.372 43.1274 273.629 44.1163 273.926C45.4612 274.321 46.5589 274.717 47.4093 275.112C48.2598 275.508 48.9916 276.101 49.6047 276.892C50.2178 277.683 50.5243 278.722 50.5243 280.007C50.5243 281.115 50.2376 282.143 49.664 283.093C49.0904 284.042 48.2499 284.803 47.1423 285.377C46.0348 285.931 44.7196 286.208 43.1967 286.208ZM69.2255 271.701C69.2255 272.808 68.9585 273.847 68.4245 274.816C67.9102 275.785 67.0895 276.566 65.9621 277.159C64.8546 277.753 63.4503 278.049 61.7495 278.049H58.2785V286H54.1251V265.293H61.7495C63.3515 265.293 64.7161 265.57 65.8435 266.123C66.9708 266.677 67.8113 267.439 68.3651 268.408C68.9387 269.377 69.2255 270.474 69.2255 271.701ZM61.5715 274.697C62.7186 274.697 63.569 274.44 64.1228 273.926C64.6766 273.392 64.9535 272.65 64.9535 271.701C64.9535 269.683 63.8261 268.675 61.5715 268.675H58.2785V274.697H61.5715ZM84.8716 282.054H76.6243L75.2596 286H70.8986L78.3449 265.263H83.1806L90.6269 286H86.2363L84.8716 282.054ZM83.7443 278.732L80.7479 270.069L77.7516 278.732H83.7443ZM115.987 265.293V286H111.833V272.531L106.286 286H103.141L97.5636 272.531V286H93.4103V265.293H98.1273L104.713 280.69L111.299 265.293H115.987Z" fill="white"/>
<circle cx="232.046" cy="172.428" r="90.7517" stroke="#710616" stroke-width="22.6879"/>
<path d="M328.469 136.128L152.638 104.968C156.47 108.826 160.933 113.249 165.791 117.978C193.529 144.976 232.045 179.235 241.121 180.369C255.868 182.213 304.647 150.119 328.469 136.128Z" fill="#3B55CE"/>
<path d="M328.469 136.128C304.647 150.119 255.868 182.213 241.121 180.369C232.045 179.235 193.529 144.976 165.791 117.978C184.851 142.178 226.721 184.907 242.255 184.907C258.137 184.907 306.159 152.766 328.469 136.128Z" fill="#2B42AC"/>
<path d="M165.791 117.978C160.933 113.249 156.47 108.826 152.638 104.968L151.582 104.781C150.305 104.554 149.098 105.443 148.936 106.731L135.894 209.978C135.742 211.183 136.565 212.294 137.762 212.499L299.191 240.141C300.352 240.34 301.472 239.617 301.769 238.477L328.469 136.128C306.159 152.766 258.137 184.907 242.255 184.907C226.721 184.907 184.851 142.178 165.791 117.978Z" fill="#304AC1"/>
<path d="M151.503 116.843C153.016 138.775 153.545 186.722 143.563 203.057L151.503 116.843Z" fill="#3B55CE"/>
<path d="M307.864 136.544C274 134.176 200.283 126.24 176.328 113.44L307.864 136.544Z" fill="#304AC1"/>
<rect x="161.713" y="240.641" width="192.955" height="22.6879" transform="rotate(-47.9285 161.713 240.641)" fill="#710616"/>
</svg>
