<svg width="82" height="71" viewBox="0 0 82 71" fill="none" xmlns="http://www.w3.org/2000/svg">
<path d="M71.9203 10.4539C70.9377 14.3447 67.9929 21.3969 65.2945 26.0172L71.9203 27.7195C71.9203 27.7195 78.0542 16.047 81 5.83354C60.3855 -0.489032 28.2383 -0.732181 1 5.83354C8.8518 32.0966 18.9122 47.1736 41.2444 70.0323C41.2444 70.0323 61.613 50.3349 69.4663 32.0967C69.4663 32.0967 51.5517 27.4763 37.8098 25.0445L42.4724 32.8262C42.4724 32.8262 52.2879 34.7716 59.159 36.9602C51.0604 50.0918 47.6248 54.2258 41.2444 61.0347C26.2751 45.4714 12.2879 20.4242 10.0798 10.4539C27.0113 6.80626 55.4776 6.56309 71.9203 10.4539Z" fill="black" stroke="black" stroke-opacity="0.7" stroke-width="0.0780502"/>
<path d="M63.5794 15.6112C50.0791 13.454 34.6163 13.2143 18.4181 15.6112C22.3442 28.0737 34.1254 43.8918 40.9978 51.3216C43.4522 48.9249 48.6065 41.7348 49.8346 39.3384L43.2077 37.9004C43.2077 37.9004 41.7341 40.0571 40.9978 40.7762C37.0707 37.4208 28.9711 24.958 28.2358 21.1236C35.8435 19.4457 45.9066 19.6853 53.5163 21.1236C53.2125 21.9964 52.5345 23.2806 52.5345 23.2806L59.1614 24.479C59.1614 24.479 62.5967 18.9663 63.5794 15.6112Z" fill="black" stroke="black" stroke-opacity="0.7" stroke-width="0.0780502"/>
</svg>
