<svg width="19" height="22" viewBox="0 0 19 22" fill="none" xmlns="http://www.w3.org/2000/svg">
<path d="M9.56754 11.5831C11.1344 11.5831 12.4046 10.2909 12.4046 8.69684C12.4046 7.10279 11.1344 5.81055 9.56754 5.81055C8.00067 5.81055 6.73047 7.10279 6.73047 8.69684C6.73047 10.2909 8.00067 11.5831 9.56754 11.5831Z" stroke="#304AC1" stroke-width="2.23399" stroke-linecap="round" stroke-linejoin="round"/>
<path d="M9.56553 0.999512C7.55903 0.999512 5.63471 1.81042 4.21589 3.25385C2.79708 4.69728 2 6.65499 2 8.6963C2 10.5166 2.38017 11.7077 3.41854 13.0257L9.56553 20.2415L15.7125 13.0257C16.7509 11.7077 17.1311 10.5166 17.1311 8.6963C17.1311 6.65499 16.334 4.69728 14.9152 3.25385C13.4964 1.81042 11.572 0.999512 9.56553 0.999512V0.999512Z" stroke="#304AC1" stroke-width="2.23399" stroke-linecap="round" stroke-linejoin="round"/>
</svg>
