<svg width="34" height="24" viewBox="0 0 34 24" fill="none" xmlns="http://www.w3.org/2000/svg">
<path d="M27.3564 9.92722C26.9251 9.92722 26.4984 9.96855 26.0798 10.0506C25.8888 4.90948 21.6467 0.785889 16.4598 0.785889C11.6898 0.785889 7.65376 4.31519 6.9457 8.95475C3.0999 9.04873 0 12.2066 0 16.0746C0 20.0016 3.19485 23.1965 7.1219 23.1965H13.0802C13.5308 23.1965 13.896 22.8314 13.896 22.3808C13.896 21.9301 13.5308 21.565 13.0802 21.565H7.1219C4.09444 21.565 1.63147 19.1021 1.63147 16.0746C1.63147 13.0471 4.09455 10.5842 7.1219 10.5842C7.27058 10.5842 7.42785 10.5914 7.60253 10.6066L8.42914 10.6781L8.48668 9.85043C8.7761 5.68236 12.2783 2.41736 16.4598 2.41736C20.8683 2.41736 24.455 6.00408 24.455 10.4126C24.455 10.6153 24.4454 10.8319 24.4255 11.0748L24.3185 12.3765L25.5352 11.9015C26.1177 11.6741 26.7305 11.5588 27.3567 11.5588C30.1203 11.5588 32.3686 13.8072 32.3686 16.5708C32.3686 19.3343 30.1203 21.5826 27.3567 21.5826C27.284 21.5826 25.1152 21.5783 22.9553 21.5739C20.8111 21.5696 18.6757 21.5652 18.6048 21.5652C18.0971 21.5652 17.8317 21.3207 17.8158 20.8386V12.0331L18.7011 13.0845C18.9912 13.4293 19.5058 13.4735 19.8504 13.1832C20.1951 12.8931 20.2392 12.3786 19.949 12.0339L17.9873 9.70338C17.7401 9.40983 17.385 9.24146 17.0129 9.24146C16.6409 9.24146 16.2857 9.40983 16.0387 9.70338L14.077 12.0339C13.7868 12.3786 13.8309 12.8931 14.1756 13.1832C14.3286 13.3121 14.5151 13.3749 14.7005 13.3749C14.9329 13.3749 15.1636 13.2762 15.3249 13.0845L16.1843 12.0637V20.8465C16.1843 21.7913 16.8289 23.1966 18.6047 23.1966C18.6756 23.1966 20.8094 23.201 22.9518 23.2052C25.1134 23.2097 27.2838 23.214 27.3566 23.214C31.0199 23.214 34 20.2339 34 16.5707C34 12.9074 31.0197 9.92722 27.3564 9.92722Z" fill="#000002"/>
</svg>
